Muli-Bold.ufo
<glyph name="numbersign" format="1">
  <advance width="1242"/>
  <unicode hex="0023"/>
  <outline>
    <contour>
      <point x="747" y="872" type="line"/>
      <point x="695" y="608" type="line"/>
      <point x="496" y="608" type="line"/>
      <point x="548" y="872" type="line"/>
    </contour>
    <contour>
      <point x="196" y="0" type="line"/>
      <point x="377" y="0" type="line"/>
      <point x="466" y="454" type="line"/>
      <point x="665" y="454" type="line"/>
      <point x="576" y="0" type="line"/>
      <point x="757" y="0" type="line"/>
      <point x="846" y="454" type="line"/>
      <point x="1120" y="454" type="line"/>
      <point x="1128" y="608" type="line"/>
      <point x="876" y="608" type="line"/>
      <point x="928" y="872" type="line"/>
      <point x="1175" y="872" type="line"/>
      <point x="1183" y="1026" type="line"/>
      <point x="959" y="1026" type="line"/>
      <point x="1043" y="1456" type="line"/>
      <point x="862" y="1456" type="line"/>
      <point x="778" y="1026" type="line"/>
      <point x="579" y="1026" type="line"/>
      <point x="663" y="1456" type="line"/>
      <point x="482" y="1456" type="line"/>
      <point x="398" y="1026" type="line"/>
      <point x="111" y="1026" type="line"/>
      <point x="101" y="872" type="line"/>
      <point x="367" y="872" type="line"/>
      <point x="315" y="608" type="line"/>
      <point x="56" y="608" type="line"/>
      <point x="46" y="454" type="line"/>
      <point x="285" y="454" type="line"/>
    </contour>
  </outline>
</glyph>
<glyph name="dollar" format="1">
  <advance width="1230"/>
  <unicode hex="0024"/>
  <outline>
    <contour>
      <point x="584" y="-215" type="line"/>
      <point x="669" y="-215" type="line"/>
      <point x="669" y="1627" type="line"/>
      <point x="584" y="1627" type="line"/>
    </contour>
    <component base="S"/>
  </outline>
</glyph>
<glyph name="parenleft" format="1">
  <advance width="628"/>
  <unicode hex="0028"/>
  <outline>
    <contour>
      <point x="397" y="-171" type="line"/>
      <point x="237" y="72"/>
      <point x="112" y="365"/>
      <point x="112" y="655" type="curve" smooth="yes"/>
      <point x="112" y="960"/>
      <point x="223" y="1233"/>
      <point x="389" y="1496" type="curve"/>
      <point x="619" y="1496" type="line"/>
      <point x="447" y="1226"/>
      <point x="348" y="934"/>
      <point x="348" y="653" type="curve" smooth="yes"/>
      <point x="348" y="392"/>
      <point x="460" y="87"/>
      <point x="619" y="-171" type="curve"/>
    </contour>
  </outline>
</glyph>
<glyph name="parenright" format="1">
  <advance width="679"/>
  <unicode hex="0029"/>
  <outline>
    <contour>
      <point x="273.0" y="1496.0" type="line"/>
      <point x="433.0" y="1253.0"/>
      <point x="558.0" y="950.0"/>
      <point x="558.0" y="660.0" type="curve" smooth="yes"/>
      <point x="558.0" y="355.0"/>
      <point x="447.0" y="72.0"/>
      <point x="281.0" y="-191.0" type="curve"/>
      <point x="51.0" y="-191.0" type="line"/>
      <point x="223.0" y="79.0"/>
      <point x="322.0" y="381.0"/>
      <point x="322.0" y="662.0" type="curve" smooth="yes"/>
      <point x="322.0" y="923.0"/>
      <point x="210.0" y="1238.0"/>
      <point x="51.0" y="1496.0" type="curve"/>
    </contour>
  </outline>
</glyph>
<glyph name="plus" format="1">
  <advance width="1265"/>
  <unicode hex="002B"/>
  <outline>
    <contour>
      <point x="521" y="57" type="line"/>
      <point x="742" y="57" type="line"/>
      <point x="742" y="454" type="line"/>
      <point x="1124" y="454" type="line"/>
      <point x="1124" y="651" type="line"/>
      <point x="743" y="651" type="line"/>
      <point x="743" y="1047" type="line"/>
      <point x="523" y="1047" type="line"/>
      <point x="523" y="651" type="line"/>
      <point x="141" y="651" type="line"/>
      <point x="141" y="454" type="line"/>
      <point x="521" y="454" type="line"/>
    </contour>
  </outline>
</glyph>
<glyph name="one" format="1">
  <advance width="1264"/>
  <unicode hex="0031"/>
  <outline>
    <contour>
      <point x="331" y="0" type="line"/>
      <point x="331" y="192" type="line"/>
      <point x="554" y="192" type="line"/>
      <point x="554" y="1197" type="line"/>
      <point x="483" y="1162"/>
      <point x="404" y="1128"/>
      <point x="292" y="1084" type="curve"/>
      <point x="292" y="1303" type="line"/>
      <point x="398" y="1343"/>
      <point x="496" y="1395"/>
      <point x="585" y="1445" type="curve"/>
      <point x="804" y="1483" type="line"/>
      <point x="804" y="189" type="line"/>
      <point x="1026" y="189" type="line"/>
      <point x="1026" y="0" type="line"/>
    </contour>
  </outline>
</glyph>
<glyph name="two" format="1">
  <advance width="1264"/>
  <unicode hex="0032"/>
  <outline>
    <contour>
      <point x="601" y="1481" type="curve" smooth="yes"/>
      <point x="849" y="1481"/>
      <point x="1025" y="1335"/>
      <point x="1045" y="1061" type="curve" smooth="yes"/>
      <point x="1063.0" y="812.0"/>
      <point x="924.25" y="596.5"/>
      <point x="781.0" y="443.25" type="curve" smooth="yes"/>
      <point x="637.75" y="290.0"/>
      <point x="490.0" y="199.0"/>
      <point x="490" y="199" type="curve"/>
      <point x="1037" y="199" type="line"/>
      <point x="1037" y="0" type="line"/>
      <point x="194" y="0" type="line"/>
      <point x="194" y="178" type="line"/>
      <point x="299.5" y="266.0"/>
      <point x="465.0" y="400.25"/>
      <point x="598.375" y="556.625" type="curve" smooth="yes"/>
      <point x="731.75" y="713.0"/>
      <point x="833.0" y="891.5"/>
      <point x="810" y="1068" type="curve" smooth="yes"/>
      <point x="790" y="1220"/>
      <point x="698" y="1276"/>
      <point x="581" y="1276" type="curve" smooth="yes"/>
      <point x="401" y="1276"/>
      <point x="216" y="1148"/>
      <point x="215" y="1148" type="curve"/>
      <point x="135" y="1338" type="line"/>
      <point x="135" y="1338"/>
      <point x="324" y="1481"/>
    </contour>
  </outline>
</glyph>
<glyph name="three" format="1">
  <advance width="1264"/>
  <unicode hex="0033"/>
  <outline>
    <contour>
      <point x="630" y="-23" type="curve" smooth="yes"/>
      <point x="391" y="-23"/>
      <point x="197" y="87"/>
      <point x="126" y="163" type="curve"/>
      <point x="252" y="332" type="line"/>
      <point x="325" y="255"/>
      <point x="464" y="184"/>
      <point x="621" y="184" type="curve" smooth="yes"/>
      <point x="770" y="184"/>
      <point x="890" y="275"/>
      <point x="890" y="421" type="curve" smooth="yes"/>
      <point x="890" y="591"/>
      <point x="762" y="657"/>
      <point x="553" y="657" type="curve" smooth="yes"/>
      <point x="529" y="657"/>
      <point x="481" y="657"/>
      <point x="439" y="654" type="curve"/>
      <point x="434" y="861" type="line"/>
      <point x="468" y="860"/>
      <point x="529" y="860"/>
      <point x="537" y="860" type="curve" smooth="yes"/>
      <point x="739" y="860"/>
      <point x="848" y="917"/>
      <point x="848" y="1099" type="curve" smooth="yes"/>
      <point x="848" y="1219"/>
      <point x="751" y="1276"/>
      <point x="620" y="1276" type="curve" smooth="yes"/>
      <point x="472" y="1276"/>
      <point x="362" y="1229"/>
      <point x="255" y="1145" type="curve"/>
      <point x="132" y="1314" type="line"/>
      <point x="273" y="1427"/>
      <point x="405" y="1483"/>
      <point x="633" y="1483" type="curve" smooth="yes"/>
      <point x="871" y="1483"/>
      <point x="1102" y="1348"/>
      <point x="1102" y="1093" type="curve" smooth="yes"/>
      <point x="1102" y="942"/>
      <point x="1017" y="806"/>
      <point x="819" y="774" type="curve"/>
      <point x="1017" y="736"/>
      <point x="1138" y="590"/>
      <point x="1138" y="416" type="curve" smooth="yes"/>
      <point x="1138" y="143"/>
      <point x="902" y="-23"/>
    </contour>
  </outline>
</glyph>
<glyph name="four" format="1">
  <advance width="1189"/>
  <unicode hex="0034"/>
  <outline>
    <contour>
      <point x="289" y="516" type="line"/>
      <point x="400" y="666"/>
      <point x="501" y="812"/>
      <point x="608" y="960" type="curve" smooth="yes"/>
      <point x="632" y="994"/>
      <point x="657" y="1028"/>
      <point x="682" y="1062" type="curve"/>
      <point x="682" y="516" type="line"/>
    </contour>
    <contour>
      <point x="679" y="0" type="line"/>
      <point x="927" y="0" type="line"/>
      <point x="927" y="330" type="line"/>
      <point x="1124" y="330" type="line"/>
      <point x="1124" y="516" type="line"/>
      <point x="923" y="516" type="line"/>
      <point x="923" y="1393" type="line"/>
      <point x="662" y="1393" type="line"/>
      <point x="35" y="484" type="line"/>
      <point x="35" y="330" type="line"/>
      <point x="679" y="330" type="line"/>
    </contour>
  </outline>
</glyph>
<glyph name="eight" format="1">
  <advance width="1264"/>
  <unicode hex="0038"/>
  <outline>
    <contour>
      <point x="632" y="855" type="curve"/>
      <point x="493" y="890"/>
      <point x="408" y="976"/>
      <point x="408" y="1091" type="curve" smooth="yes"/>
      <point x="408" y="1217"/>
      <point x="502" y="1276"/>
      <point x="631" y="1276" type="curve" smooth="yes"/>
      <point x="753" y="1276"/>
      <point x="855" y="1213"/>
      <point x="855" y="1101" type="curve" smooth="yes"/>
      <point x="855" y="978"/>
      <point x="769" y="893"/>
    </contour>
    <contour>
      <point x="633" y="184" type="curve" smooth="yes"/>
      <point x="480" y="184"/>
      <point x="382" y="261"/>
      <point x="382" y="402" type="curve" smooth="yes"/>
      <point x="382" y="539"/>
      <point x="490" y="643"/>
      <point x="638" y="675" type="curve"/>
      <point x="775" y="641"/>
      <point x="886" y="527"/>
      <point x="886" y="405" type="curve" smooth="yes"/>
      <point x="886" y="253"/>
      <point x="783" y="184"/>
    </contour>
    <contour>
      <point x="636" y="-23" type="curve" smooth="yes"/>
      <point x="895" y="-23"/>
      <point x="1132" y="121"/>
      <point x="1132" y="385" type="curve" smooth="yes"/>
      <point x="1132" y="547"/>
      <point x="1020" y="693"/>
      <point x="873" y="761" type="curve"/>
      <point x="1010" y="824"/>
      <point x="1101" y="933"/>
      <point x="1101" y="1092" type="curve" smooth="yes"/>
      <point x="1101" y="1336"/>
      <point x="917" y="1483"/>
      <point x="630" y="1483" type="curve" smooth="yes"/>
      <point x="362" y="1483"/>
      <point x="164" y="1342"/>
      <point x="164" y="1101" type="curve" smooth="yes"/>
      <point x="164" y="943"/>
      <point x="260" y="834"/>
      <point x="395" y="764" type="curve"/>
      <point x="233" y="691"/>
      <point x="132" y="558"/>
      <point x="132" y="392" type="curve" smooth="yes"/>
      <point x="132" y="127"/>
      <point x="353" y="-23"/>
    </contour>
  </outline>
</glyph>
<glyph name="nine" format="1">
  <advance width="1264"/>
  <unicode hex="0039"/>
  <outline>
    <contour>
      <point x="566" y="-25" type="curve" smooth="yes"/>
      <point x="454" y="-25"/>
      <point x="327" y="7"/>
      <point x="188" y="75" type="curve"/>
      <point x="275" y="271" type="line"/>
      <point x="362" y="216"/>
      <point x="457" y="185"/>
      <point x="546" y="185" type="curve" smooth="yes"/>
      <point x="730" y="185"/>
      <point x="886" y="316"/>
      <point x="886" y="633" type="curve" smooth="yes"/>
      <point x="886" y="665" type="line"/>
      <point x="817" y="557"/>
      <point x="699" y="521"/>
      <point x="584" y="521" type="curve" smooth="yes"/>
      <point x="297" y="521"/>
      <point x="116" y="714"/>
      <point x="116" y="993" type="curve" smooth="yes"/>
      <point x="116" y="1271"/>
      <point x="308" y="1483"/>
      <point x="617" y="1483" type="curve" smooth="yes"/>
      <point x="945" y="1483"/>
      <point x="1135" y="1228"/>
      <point x="1135" y="771" type="curve" smooth="yes"/>
      <point x="1135" y="290"/>
      <point x="921" y="-25"/>
    </contour>
    <contour>
      <point x="363" y="998" type="curve" smooth="yes"/>
      <point x="363" y="842"/>
      <point x="441" y="722"/>
      <point x="609" y="722" type="curve" smooth="yes"/>
      <point x="765" y="722"/>
      <point x="880" y="820"/>
      <point x="880" y="1012" type="curve" smooth="yes"/>
      <point x="880" y="1152"/>
      <point x="788" y="1276"/>
      <point x="625" y="1276" type="curve" smooth="yes"/>
      <point x="464" y="1276"/>
      <point x="363" y="1162"/>
    </contour>
  </outline>
</glyph>
<glyph name="less" format="1">
  <advance width="1458"/>
  <unicode hex="003C"/>
  <outline>
    <contour>
      <point x="1211" y="23" type="line"/>
      <point x="184" y="495" type="line"/>
      <point x="184" y="606" type="line"/>
      <point x="1215" y="1088" type="line"/>
      <point x="1215" y="871" type="line"/>
      <point x="510" y="550" type="line"/>
      <point x="510" y="550"/>
      <point x="1102" y="284"/>
      <point x="1211" y="236" type="curve"/>
    </contour>
  </outline>
</glyph>
<glyph name="equal" format="1">
  <advance width="1459"/>
  <unicode hex="003D"/>
  <outline>
    <contour>
      <point x="196" y="267" type="line"/>
      <point x="196" y="458" type="line"/>
      <point x="1263" y="458" type="line"/>
      <point x="1263" y="267" type="line"/>
    </contour>
    <contour>
      <point x="196" y="646" type="line"/>
      <point x="196" y="838" type="line"/>
      <point x="1261" y="838" type="line"/>
      <point x="1261" y="646" type="line"/>
    </contour>
  </outline>
</glyph>
<glyph name="question" format="1">
  <advance width="1032"/>
  <unicode hex="003F"/>
  <outline>
    <contour>
      <point x="317" y="393" type="line"/>
      <point x="317" y="543" type="line" smooth="yes"/>
      <point x="317" y="802"/>
      <point x="678" y="915"/>
      <point x="678" y="1118" type="curve" smooth="yes"/>
      <point x="678" y="1234"/>
      <point x="590" y="1278"/>
      <point x="472" y="1278" type="curve" smooth="yes"/>
      <point x="378" y="1278"/>
      <point x="265" y="1246"/>
      <point x="163" y="1198" type="curve"/>
      <point x="163" y="1410" type="line"/>
      <point x="279" y="1459"/>
      <point x="397" y="1484"/>
      <point x="504" y="1484" type="curve" smooth="yes"/>
      <point x="737" y="1484"/>
      <point x="919" y="1367"/>
      <point x="919" y="1125" type="curve" smooth="yes"/>
      <point x="919.0" y="823.35418427"/>
      <point x="573.051490296" y="812.348505848"/>
      <point x="544.4985" y="523.886125" type="curve" smooth="yes"/>
      <point x="540.846622683" y="486.992293053"/>
      <point x="542.0" y="443.840093934"/>
      <point x="542" y="393" type="curve"/>
    </contour>
    <contour>
      <point x="291" y="0" type="line"/>
      <point x="291" y="262" type="line"/>
      <point x="570" y="262" type="line"/>
      <point x="570" y="0" type="line"/>
    </contour>
  </outline>
</glyph>
<glyph name="at" format="1">
  <advance width="1805"/>
  <unicode hex="0040"/>
  <outline>
    <contour>
      <point x="940" y="-99" type="curve" smooth="yes"/>
      <point x="1148" y="-99"/>
      <point x="1356" y="-41"/>
      <point x="1514" y="78" type="curve"/>
      <point x="1435" y="189" type="line"/>
      <point x="1286" y="98"/>
      <point x="1118" y="52"/>
      <point x="958" y="52" type="curve" smooth="yes"/>
      <point x="625" y="52"/>
      <point x="301" y="250"/>
      <point x="301" y="668" type="curve" smooth="yes"/>
      <point x="301" y="1113"/>
      <point x="605" y="1326"/>
      <point x="968" y="1326" type="curve" smooth="yes"/>
      <point x="1258" y="1326"/>
      <point x="1543" y="1159"/>
      <point x="1543" y="799" type="curve" smooth="yes"/>
      <point x="1543" y="545"/>
      <point x="1397" y="374"/>
      <point x="1311" y="374" type="curve" smooth="yes"/>
      <point x="1268" y="374"/>
      <point x="1251" y="427"/>
      <point x="1251" y="462" type="curve" smooth="yes"/>
      <point x="1251" y="495"/>
      <point x="1252" y="533"/>
      <point x="1272" y="636" type="curve" smooth="yes"/>
      <point x="1365" y="1117" type="line"/>
      <point x="1159" y="1117" type="line"/>
      <point x="1138" y="1018" type="line"/>
      <point x="1107" y="1102"/>
      <point x="1034" y="1137"/>
      <point x="931" y="1137" type="curve" smooth="yes"/>
      <point x="736" y="1137"/>
      <point x="481" y="934"/>
      <point x="481" y="624" type="curve" smooth="yes"/>
      <point x="481" y="378"/>
      <point x="660" y="258"/>
      <point x="817" y="258" type="curve" smooth="yes"/>
      <point x="975" y="258"/>
      <point x="1072" y="351"/>
      <point x="1109" y="463" type="curve"/>
      <point x="1109" y="347"/>
      <point x="1189" y="254"/>
      <point x="1330" y="254" type="curve" smooth="yes"/>
      <point x="1535" y="254"/>
      <point x="1699" y="533"/>
      <point x="1699" y="794" type="curve" smooth="yes"/>
      <point x="1699" y="1199"/>
      <point x="1377" y="1482"/>
      <point x="960" y="1482" type="curve" smooth="yes"/>
      <point x="494" y="1482"/>
      <point x="106" y="1175"/>
      <point x="106" y="668" type="curve" smooth="yes"/>
      <point x="106" y="196"/>
      <point x="467" y="-99"/>
    </contour>
    <contour>
      <point x="848" y="440" type="curve" smooth="yes"/>
      <point x="769" y="440"/>
      <point x="713" y="501"/>
      <point x="713" y="593" type="curve" smooth="yes"/>
      <point x="713" y="760"/>
      <point x="804" y="963"/>
      <point x="958" y="963" type="curve" smooth="yes"/>
      <point x="1035" y="963"/>
      <point x="1087" y="911"/>
      <point x="1087" y="819" type="curve" smooth="yes"/>
      <point x="1087" y="627"/>
      <point x="989" y="440"/>
    </contour>
  </outline>
</glyph>
<glyph name="A" format="1">
  <advance width="1446"/>
  <unicode hex="0041"/>
  <outline>
    <contour>
      <point x="505" y="584" type="line"/>
      <point x="923" y="584" type="line"/>
      <point x="823" y="876" type="line"/>
      <point x="716" y="1179" type="line"/>
      <point x="607" y="876" type="line"/>
    </contour>
    <contour>
      <point x="15" y="0" type="line"/>
      <point x="597" y="1456" type="line"/>
      <point x="844" y="1456" type="line"/>
      <point x="1431" y="0" type="line"/>
      <point x="1159" y="0" type="line"/>
      <point x="1015" y="364" type="line"/>
      <point x="421" y="364" type="line"/>
      <point x="280" y="0" type="line"/>
    </contour>
  </outline>
</glyph>
<glyph name="B" format="1">
  <advance width="1356"/>
  <unicode hex="0042"/>
  <outline>
    <contour>
      <point x="192" y="0" type="line"/>
      <point x="192" y="1456" type="line"/>
      <point x="576" y="1456" type="line" smooth="yes"/>
      <point x="830" y="1456"/>
      <point x="1173" y="1429"/>
      <point x="1173" y="1088" type="curve" smooth="yes"/>
      <point x="1173" y="957"/>
      <point x="1116" y="840"/>
      <point x="969" y="775" type="curve"/>
      <point x="1153" y="730"/>
      <point x="1240" y="588"/>
      <point x="1240" y="414" type="curve" smooth="yes"/>
      <point x="1240" y="196"/>
      <point x="1070" y="0"/>
      <point x="708" y="0" type="curve" smooth="yes"/>
    </contour>
    <contour>
      <point x="436" y="207" type="line"/>
      <point x="665" y="207" type="line" smooth="yes"/>
      <point x="869" y="207"/>
      <point x="981" y="280"/>
      <point x="981" y="424" type="curve" smooth="yes"/>
      <point x="981" y="602"/>
      <point x="893" y="654"/>
      <point x="654" y="654" type="curve" smooth="yes"/>
      <point x="436" y="654" type="line"/>
    </contour>
    <contour>
      <point x="434" y="852" type="line"/>
      <point x="642" y="852" type="line" smooth="yes"/>
      <point x="778" y="852"/>
      <point x="916" y="896"/>
      <point x="916" y="1057" type="curve" smooth="yes"/>
      <point x="916" y="1215"/>
      <point x="797" y="1249"/>
      <point x="596" y="1249" type="curve" smooth="yes"/>
      <point x="434" y="1249" type="line"/>
    </contour>
  </outline>
</glyph>
<glyph name="C" format="1">
  <advance width="1426"/>
  <unicode hex="0043"/>
  <outline>
    <contour>
      <point x="1179" y="22"/>
      <point x="1008" y="-22"/>
      <point x="833" y="-22" type="curve" smooth="yes"/>
      <point x="456" y="-22"/>
      <point x="106" y="237"/>
      <point x="106" y="725" type="curve" smooth="yes"/>
      <point x="106" y="1220"/>
      <point x="455" y="1483"/>
      <point x="815" y="1483" type="curve" smooth="yes"/>
      <point x="983" y="1483"/>
      <point x="1147" y="1445"/>
      <point x="1296" y="1327" type="curve"/>
      <point x="1201" y="1159" type="line"/>
      <point x="1070" y="1251"/>
      <point x="951" y="1275"/>
      <point x="835" y="1275" type="curve" smooth="yes"/>
      <point x="572" y="1275"/>
      <point x="360" y="1058"/>
      <point x="360" y="728" type="curve" smooth="yes"/>
      <point x="360" y="393"/>
      <point x="571" y="186"/>
      <point x="848" y="186" type="curve" smooth="yes"/>
      <point x="978" y="186"/>
      <point x="1115" y="225"/>
      <point x="1252" y="333" type="curve"/>
      <point x="1333" y="141" type="line"/>
    </contour>
  </outline>
</glyph>
<glyph name="H" format="1">
  <advance width="1568"/>
  <unicode hex="0048"/>
  <outline>
    <contour>
      <point x="192" y="0" type="line"/>
      <point x="192" y="1456" type="line"/>
      <point x="434" y="1456" type="line"/>
      <point x="434" y="851" type="line"/>
      <point x="1134" y="851" type="line"/>
      <point x="1134" y="1456" type="line"/>
      <point x="1376" y="1456" type="line"/>
      <point x="1376" y="0" type="line"/>
      <point x="1138" y="0" type="line"/>
      <point x="1138" y="643" type="line"/>
      <point x="438" y="643" type="line"/>
      <point x="438" y="0" type="line"/>
    </contour>
  </outline>
</glyph>
<glyph name="J" format="1">
  <advance width="961"/>
  <unicode hex="004A"/>
  <outline>
    <contour>
      <point x="373" y="-331" type="curve" smooth="yes"/>
      <point x="284" y="-331"/>
      <point x="180" y="-311"/>
      <point x="66" y="-270" type="curve"/>
      <point x="108" y="-85" type="line"/>
      <point x="200" y="-114"/>
      <point x="273" y="-127"/>
      <point x="331" y="-127" type="curve" smooth="yes"/>
      <point x="481" y="-127"/>
      <point x="529" y="-35"/>
      <point x="529" y="112" type="curve" smooth="yes"/>
      <point x="529" y="1456" type="line"/>
      <point x="771" y="1456" type="line"/>
      <point x="771" y="121" type="line" smooth="yes"/>
      <point x="771" y="-174"/>
      <point x="624" y="-331"/>
    </contour>
  </outline>
</glyph>
<glyph name="K" format="1">
  <advance width="1339"/>
  <unicode hex="004B"/>
  <outline>
    <contour>
      <point x="192" y="0" type="line"/>
      <point x="192" y="1456" type="line"/>
      <point x="434" y="1456" type="line"/>
      <point x="434" y="855" type="line"/>
      <point x="526" y="951"/>
      <point x="615" y="1046"/>
      <point x="999" y="1456" type="curve"/>
      <point x="1301" y="1456" type="line"/>
      <point x="616" y="752" type="line"/>
      <point x="1350" y="0" type="line"/>
      <point x="1037" y="0" type="line"/>
      <point x="436" y="639" type="line"/>
      <point x="436" y="0" type="line"/>
    </contour>
  </outline>
</glyph>
<glyph name="M" format="1">
  <advance width="1991"/>
  <unicode hex="004D"/>
  <outline>
    <contour>
      <point x="192" y="0" type="line"/>
      <point x="425" y="0" type="line"/>
      <point x="425" y="1041" type="line"/>
      <point x="514" y="850" type="line"/>
      <point x="908" y="0" type="line"/>
      <point x="1086" y="0" type="line"/>
      <point x="1479.27" y="853.846" type="line"/>
      <point x="1571" y="1053" type="line"/>
      <point x="1571" y="0" type="line"/>
      <point x="1798" y="0" type="line"/>
      <point x="1798" y="1456" type="line"/>
      <point x="1505" y="1456" type="line"/>
      <point x="1105.81" y="563.931" type="line"/>
      <point x="998" y="323" type="line"/>
      <point x="891.595" y="558.463" type="line"/>
      <point x="486" y="1456" type="line"/>
      <point x="192" y="1456" type="line"/>
    </contour>
  </outline>
</glyph>
<glyph name="N" format="1">
  <advance width="1612"/>
  <unicode hex="004E"/>
  <outline>
    <contour>
      <point x="192" y="0" type="line"/>
      <point x="192" y="1456" type="line"/>
      <point x="449" y="1456" type="line"/>
      <point x="1069" y="535" type="line"/>
      <point x="1189" y="358" type="line"/>
      <point x="1189" y="1456" type="line"/>
      <point x="1419" y="1456" type="line"/>
      <point x="1419" y="0" type="line"/>
      <point x="1161" y="0" type="line"/>
      <point x="538" y="918" type="line"/>
      <point x="416" y="1098" type="line"/>
      <point x="416" y="0" type="line"/>
    </contour>
  </outline>
</glyph>
<glyph name="P" format="1">
  <advance width="1291"/>
  <unicode hex="0050"/>
  <outline>
    <contour>
      <point x="192" y="0" type="line"/>
      <point x="192" y="1456" type="line"/>
      <point x="607" y="1456" type="line" smooth="yes"/>
      <point x="951" y="1456"/>
      <point x="1223" y="1419"/>
      <point x="1223" y="1044" type="curve" smooth="yes"/>
      <point x="1223" y="730"/>
      <point x="1011" y="634"/>
      <point x="665" y="634" type="curve" smooth="yes"/>
      <point x="434" y="634" type="line"/>
      <point x="434" y="0" type="line"/>
    </contour>
    <contour>
      <point x="434" y="841" type="line"/>
      <point x="661" y="841" type="line" smooth="yes"/>
      <point x="847" y="841"/>
      <point x="970" y="877"/>
      <point x="970" y="1042" type="curve" smooth="yes"/>
      <point x="970" y="1240"/>
      <point x="832" y="1247"/>
      <point x="616" y="1247" type="curve" smooth="yes"/>
      <point x="434" y="1247" type="line"/>
    </contour>
  </outline>
</glyph>
<glyph name="Q" format="1">
  <advance width="1662"/>
  <unicode hex="0051"/>
  <outline>
    <contour>
      <point x="1254" y="-443" type="line"/>
      <point x="1254" y="-443"/>
      <point x="1050" y="-260"/>
      <point x="923" y="-8" type="curve"/>
      <point x="1136" y="35" type="line"/>
      <point x="1217" y="-134"/>
      <point x="1389" y="-298"/>
      <point x="1389" y="-298" type="curve"/>
    </contour>
    <component base="O"/>
  </outline>
</glyph>
<glyph name="S" format="1">
  <advance width="1254"/>
  <unicode hex="0053"/>
  <outline>
    <contour>
      <point x="622" y="-23" type="curve" smooth="yes"/>
      <point x="889" y="-23"/>
      <point x="1146" y="92"/>
      <point x="1146" y="389" type="curve" smooth="yes"/>
      <point x="1146" y="640"/>
      <point x="989" y="734"/>
      <point x="686" y="851" type="curve" smooth="yes"/>
      <point x="482" y="930"/>
      <point x="371" y="965"/>
      <point x="371" y="1089" type="curve" smooth="yes"/>
      <point x="371" y="1225"/>
      <point x="525" y="1275"/>
      <point x="657" y="1275" type="curve" smooth="yes"/>
      <point x="767" y="1275"/>
      <point x="902" y="1250"/>
      <point x="998" y="1158" type="curve"/>
      <point x="1128" y="1318" type="line"/>
      <point x="1019" y="1423"/>
      <point x="892" y="1483"/>
      <point x="623" y="1483" type="curve" smooth="yes"/>
      <point x="343" y="1483"/>
      <point x="113" y="1342"/>
      <point x="113" y="1080" type="curve" smooth="yes"/>
      <point x="113" y="831"/>
      <point x="295" y="751"/>
      <point x="565" y="646" type="curve" smooth="yes"/>
      <point x="779" y="563"/>
      <point x="889" y="511"/>
      <point x="889" y="393" type="curve" smooth="yes"/>
      <point x="889" y="254"/>
      <point x="791" y="184"/>
      <point x="608" y="184" type="curve" smooth="yes"/>
      <point x="484" y="184"/>
      <point x="301" y="245"/>
      <point x="213" y="315" type="curve"/>
      <point x="112" y="144" type="line"/>
      <point x="208" y="49"/>
      <point x="416" y="-23"/>
    </contour>
  </outline>
</glyph>
<glyph name="U" format="1">
  <advance width="1506"/>
  <unicode hex="0055"/>
  <outline>
    <contour>
      <point x="753" y="-23" type="curve" smooth="yes"/>
      <point x="280" y="-23"/>
      <point x="165" y="261"/>
      <point x="165" y="591" type="curve" smooth="yes"/>
      <point x="165" y="1456" type="line"/>
      <point x="407" y="1456" type="line"/>
      <point x="407" y="582" type="line" smooth="yes"/>
      <point x="407" y="280"/>
      <point x="550" y="184"/>
      <point x="753" y="184" type="curve" smooth="yes"/>
      <point x="956" y="184"/>
      <point x="1099" y="280"/>
      <point x="1099" y="582" type="curve" smooth="yes"/>
      <point x="1099" y="1456" type="line"/>
      <point x="1341" y="1456" type="line"/>
      <point x="1341" y="591" type="line" smooth="yes"/>
      <point x="1341" y="261"/>
      <point x="1226" y="-23"/>
    </contour>
  </outline>
</glyph>
<glyph name="X" format="1">
  <advance width="1376"/>
  <unicode hex="0058"/>
  <outline>
    <contour>
      <point x="1068" y="0" type="line"/>
      <point x="1367" y="0" type="line"/>
      <point x="1283.77" y="119.741"/>
      <point x="1187.74" y="256.541"/>
      <point x="840.71" y="748.244" type="curve"/>
      <point x="1355" y="1456" type="line"/>
      <point x="1075" y="1456" type="line"/>
      <point x="701.358" y="945.66" type="line"/>
      <point x="599.538" y="1089.89"/>
      <point x="480.616" y="1258.3"/>
      <point x="341" y="1456" type="curve"/>
      <point x="43" y="1456" type="line"/>
      <point x="548.882" y="737.4" type="line"/>
      <point x="9" y="0" type="line"/>
      <point x="297" y="0" type="line"/>
      <point x="688.607" y="538.923" type="line"/>
    </contour>
  </outline>
</glyph>
<glyph name="Y" format="1">
  <advance width="1303"/>
  <unicode hex="0059"/>
  <outline>
    <contour>
      <point x="524" y="0" type="line"/>
      <point x="765" y="0" type="line"/>
      <point x="765" y="584" type="line"/>
      <point x="1314" y="1456" type="line"/>
      <point x="1034" y="1456" type="line"/>
      <point x="969" y="1343"/>
      <point x="649" y="797"/>
      <point x="649" y="797" type="curve"/>
      <point x="263" y="1456" type="line"/>
      <point x="-11" y="1456" type="line"/>
      <point x="524" y="582" type="line"/>
    </contour>
  </outline>
</glyph>
<glyph name="backslash" format="1">
  <advance width="706"/>
  <unicode hex="005C"/>
  <outline>
    <contour>
      <point x="557" y="-80" type="line"/>
      <point x="-115" y="1456" type="line"/>
      <point x="134" y="1456" type="line"/>
      <point x="802" y="-80" type="line"/>
    </contour>
  </outline>
</glyph>
<glyph name="bracketright" format="1">
  <advance width="628"/>
  <unicode hex="005D"/>
  <outline>
    <contour>
      <point x="97" y="-171" type="line"/>
      <point x="97" y="9" type="line"/>
      <point x="273" y="9" type="line"/>
      <point x="273" y="1316" type="line"/>
      <point x="97" y="1316" type="line"/>
      <point x="97" y="1496" type="line"/>
      <point x="512" y="1496" type="line"/>
      <point x="512" y="-171" type="line"/>
    </contour>
  </outline>
</glyph>
<glyph name="asciicircum" format="1">
  <advance width="1458"/>
  <unicode hex="005E"/>
  <outline>
    <contour>
      <point x="163" y="517" type="line"/>
      <point x="404" y="517" type="line"/>
      <point x="501.732" y="712.464"/>
      <point x="612.021" y="933.564"/>
      <point x="723" y="1138" type="curve"/>
      <point x="1058" y="517" type="line"/>
      <point x="1295" y="517" type="line"/>
      <point x="802" y="1405" type="line"/>
      <point x="650" y="1405" type="line"/>
    </contour>
  </outline>
</glyph>
<glyph name="a" format="1">
  <advance width="1289"/>
  <unicode hex="0061"/>
  <outline>
    <contour>
      <point x="947" y="223" type="line"/>
      <point x="904" y="103"/>
      <point x="789" y="-23"/>
      <point x="609" y="-23" type="curve" smooth="yes"/>
      <point x="270" y="-23"/>
      <point x="108" y="239"/>
      <point x="108" y="504" type="curve" smooth="yes"/>
      <point x="108" y="786"/>
      <point x="279" y="1052"/>
      <point x="617" y="1052" type="curve" smooth="yes"/>
      <point x="795" y="1052"/>
      <point x="904" y="954"/>
      <point x="957" y="827" type="curve"/>
      <point x="915" y="799" type="line"/>
      <point x="915" y="1026" type="line"/>
      <point x="1146" y="1026" type="line"/>
      <point x="1146" y="0" type="line"/>
      <point x="910" y="0" type="line"/>
      <point x="910" y="238" type="line"/>
    </contour>
    <contour>
      <point x="636" y="861" type="curve" smooth="yes"/>
      <point x="438" y="861"/>
      <point x="343" y="717"/>
      <point x="343" y="515" type="curve" smooth="yes"/>
      <point x="343" y="317"/>
      <point x="436" y="168"/>
      <point x="640" y="168" type="curve" smooth="yes"/>
      <point x="844" y="168"/>
      <point x="923" y="318"/>
      <point x="923" y="515" type="curve" smooth="yes"/>
      <point x="923" y="717"/>
      <point x="834" y="861"/>
    </contour>
  </outline>
</glyph>
<glyph name="b" format="1">
  <advance width="1255"/>
  <unicode hex="0062"/>
  <outline>
    <contour>
      <point x="641" y="168" type="curve" smooth="yes"/>
      <point x="451" y="168"/>
      <point x="372" y="328"/>
      <point x="372" y="515" type="curve" smooth="yes"/>
      <point x="372" y="707"/>
      <point x="457" y="861"/>
      <point x="641" y="861" type="curve" smooth="yes"/>
      <point x="825" y="861"/>
      <point x="908" y="707"/>
      <point x="908" y="515" type="curve" smooth="yes"/>
      <point x="908" y="328"/>
      <point x="831" y="168"/>
    </contour>
    <contour>
      <point x="688" y="-23" type="curve" smooth="yes"/>
      <point x="950" y="-23"/>
      <point x="1155" y="182"/>
      <point x="1155" y="508" type="curve" smooth="yes"/>
      <point x="1155" y="802"/>
      <point x="992" y="1052"/>
      <point x="671" y="1052" type="curve" smooth="yes"/>
      <point x="540" y="1052"/>
      <point x="446" y="1004"/>
      <point x="385" y="952" type="curve"/>
      <point x="385" y="1463" type="line"/>
      <point x="150" y="1463" type="line"/>
      <point x="150" y="272" type="line" smooth="yes"/>
      <point x="150" y="243"/>
      <point x="149" y="215"/>
      <point x="142" y="0" type="curve"/>
      <point x="383" y="0" type="line"/>
      <point x="385" y="95" type="line"/>
      <point x="472" y="-10"/>
      <point x="587" y="-23"/>
    </contour>
  </outline>
</glyph>
<glyph name="c" format="1">
  <advance width="1057"/>
  <unicode hex="0063"/>
  <outline>
    <contour>
      <point x="629" y="-23" type="curve" smooth="yes"/>
      <point x="290" y="-23"/>
      <point x="100" y="219"/>
      <point x="100" y="506" type="curve" smooth="yes"/>
      <point x="100" y="804"/>
      <point x="293" y="1052"/>
      <point x="623" y="1052" type="curve" smooth="yes"/>
      <point x="779" y="1052"/>
      <point x="911" y="1006"/>
      <point x="996" y="917" type="curve"/>
      <point x="898" y="764" type="line"/>
      <point x="839" y="816"/>
      <point x="764" y="861"/>
      <point x="651" y="861" type="curve" smooth="yes"/>
      <point x="454" y="861"/>
      <point x="345" y="725"/>
      <point x="345" y="507" type="curve" smooth="yes"/>
      <point x="345" y="302"/>
      <point x="459" y="168"/>
      <point x="656" y="168" type="curve" smooth="yes"/>
      <point x="789" y="168"/>
      <point x="878" y="232"/>
      <point x="921" y="264" type="curve"/>
      <point x="993" y="91" type="line"/>
      <point x="884" y="14"/>
      <point x="771" y="-23"/>
    </contour>
  </outline>
</glyph>
<glyph name="d" format="1">
  <advance width="1251"/>
  <unicode hex="0064"/>
  <outline>
    <contour>
      <point x="567" y="-23" type="curve" smooth="yes"/>
      <point x="305" y="-23"/>
      <point x="100" y="182"/>
      <point x="100" y="508" type="curve" smooth="yes"/>
      <point x="100" y="802"/>
      <point x="263" y="1052"/>
      <point x="584" y="1052" type="curve" smooth="yes"/>
      <point x="745" y="1052"/>
      <point x="840" y="964"/>
      <point x="870" y="910" type="curve"/>
      <point x="870" y="1463" type="line"/>
      <point x="1105" y="1463" type="line"/>
      <point x="1105" y="272" type="line" smooth="yes"/>
      <point x="1105" y="243"/>
      <point x="1106" y="215"/>
      <point x="1113" y="0" type="curve"/>
      <point x="872" y="0" type="line"/>
      <point x="870" y="139" type="line"/>
      <point x="845" y="78"/>
      <point x="755" y="-23"/>
    </contour>
    <contour>
      <point x="613" y="168" type="curve" smooth="yes"/>
      <point x="803" y="168"/>
      <point x="877" y="328"/>
      <point x="877" y="515" type="curve" smooth="yes"/>
      <point x="877" y="707"/>
      <point x="797" y="861"/>
      <point x="613" y="861" type="curve" smooth="yes"/>
      <point x="429" y="861"/>
      <point x="347" y="707"/>
      <point x="347" y="515" type="curve" smooth="yes"/>
      <point x="347" y="328"/>
      <point x="423" y="168"/>
    </contour>
  </outline>
</glyph>
<glyph name="e" format="1">
  <advance width="1199"/>
  <unicode hex="0065"/>
  <outline>
    <contour>
      <point x="660" y="-23" type="curve" smooth="yes"/>
      <point x="314" y="-23"/>
      <point x="108" y="197"/>
      <point x="108" y="512" type="curve" smooth="yes"/>
      <point x="108" y="803"/>
      <point x="302" y="1052"/>
      <point x="629" y="1052" type="curve" smooth="yes"/>
      <point x="955" y="1052"/>
      <point x="1086" y="814"/>
      <point x="1086" y="519" type="curve" smooth="yes"/>
      <point x="1086" y="508"/>
      <point x="1085" y="490"/>
      <point x="1081" y="474" type="curve"/>
      <point x="356" y="474" type="line"/>
      <point x="364" y="261"/>
      <point x="497" y="168"/>
      <point x="680" y="168" type="curve" smooth="yes"/>
      <point x="793" y="168"/>
      <point x="900" y="204"/>
      <point x="1003" y="279" type="curve"/>
      <point x="1068" y="107" type="line"/>
      <point x="946" y="19"/>
      <point x="819" y="-23"/>
    </contour>
    <contour>
      <point x="360" y="632" type="curve"/>
      <point x="880" y="632" type="line"/>
      <point x="859" y="788"/>
      <point x="767" y="869"/>
      <point x="641" y="869" type="curve" smooth="yes"/>
      <point x="493" y="869"/>
      <point x="391" y="778"/>
    </contour>
  </outline>
</glyph>
<glyph name="f" format="1">
  <advance width="794"/>
  <unicode hex="0066"/>
  <outline>
    <contour>
      <point x="255" y="0" type="line"/>
      <point x="490" y="0" type="line"/>
      <point x="490" y="868" type="line"/>
      <point x="724" y="868" type="line"/>
      <point x="724" y="1026" type="line"/>
      <point x="490" y="1026" type="line"/>
      <point x="490" y="1045"/>
      <point x="490" y="1062"/>
      <point x="491" y="1079" type="curve" smooth="yes"/>
      <point x="496" y="1298"/>
      <point x="539" y="1301"/>
      <point x="724" y="1301" type="curve"/>
      <point x="732" y="1484" type="line"/>
      <point x="680" y="1484" type="line" smooth="yes"/>
      <point x="330" y="1484"/>
      <point x="255" y="1359"/>
      <point x="255" y="1073" type="curve" smooth="yes"/>
      <point x="255" y="1026" type="line"/>
      <point x="66" y="1026" type="line"/>
      <point x="66" y="868" type="line"/>
      <point x="255" y="868" type="line"/>
    </contour>
  </outline>
</glyph>
<glyph name="g" format="1">
  <advance width="1244"/>
  <unicode hex="0067"/>
  <outline>
    <contour>
      <point x="619" y="185" type="curve" smooth="yes"/>
      <point x="823" y="185"/>
      <point x="885" y="352"/>
      <point x="885" y="522" type="curve" smooth="yes"/>
      <point x="885" y="716"/>
      <point x="802" y="861"/>
      <point x="625" y="861" type="curve" smooth="yes"/>
      <point x="442" y="861"/>
      <point x="353" y="702"/>
      <point x="353" y="516" type="curve" smooth="yes"/>
      <point x="353" y="314"/>
      <point x="436" y="185"/>
    </contour>
    <contour>
      <point x="228" y="-119" type="line"/>
      <point x="352" y="-200"/>
      <point x="464" y="-222"/>
      <point x="562" y="-222" type="curve" smooth="yes"/>
      <point x="753" y="-222"/>
      <point x="874" y="-137"/>
      <point x="874" y="47" type="curve" smooth="yes"/>
      <point x="874" y="232" type="line"/>
      <point x="912" y="205" type="line"/>
      <point x="891" y="164"/>
      <point x="822" y="6"/>
      <point x="603" y="6" type="curve" smooth="yes"/>
      <point x="308" y="6"/>
      <point x="106" y="201"/>
      <point x="106" y="515" type="curve" smooth="yes"/>
      <point x="106" y="803"/>
      <point x="259" y="1052"/>
      <point x="588" y="1052" type="curve" smooth="yes"/>
      <point x="776" y="1052"/>
      <point x="883" y="934"/>
      <point x="909" y="831" type="curve"/>
      <point x="875" y="805" type="line"/>
      <point x="875" y="1026" type="line"/>
      <point x="1124" y="1026" type="line"/>
      <point x="1124" y="1026"/>
      <point x="1106" y="872"/>
      <point x="1106" y="695" type="curve" smooth="yes"/>
      <point x="1106" y="147" type="line" smooth="yes"/>
      <point x="1106" y="-112"/>
      <point x="1019" y="-416"/>
      <point x="577" y="-416" type="curve" smooth="yes"/>
      <point x="441" y="-416"/>
      <point x="313" y="-387"/>
      <point x="188" y="-323" type="curve"/>
    </contour>
  </outline>
</glyph>
<glyph name="h" format="1">
  <advance width="1185"/>
  <unicode hex="0068"/>
  <outline>
    <contour>
      <point x="142" y="0" type="line"/>
      <point x="142" y="1463" type="line"/>
      <point x="378" y="1463" type="line"/>
      <point x="378" y="888" type="line"/>
      <point x="433" y="990"/>
      <point x="563" y="1052"/>
      <point x="674" y="1052" type="curve" smooth="yes"/>
      <point x="1002" y="1052"/>
      <point x="1053" y="777"/>
      <point x="1053" y="580" type="curve" smooth="yes"/>
      <point x="1053" y="0" type="line"/>
      <point x="816" y="0" type="line"/>
      <point x="816" y="586" type="line" smooth="yes"/>
      <point x="816" y="785"/>
      <point x="767" y="861"/>
      <point x="643" y="861" type="curve" smooth="yes"/>
      <point x="503" y="861"/>
      <point x="378" y="748"/>
      <point x="378" y="619" type="curve" smooth="yes"/>
      <point x="378" y="0" type="line"/>
    </contour>
  </outline>
</glyph>
<glyph name="i" format="1">
  <advance width="523"/>
  <unicode hex="0069"/>
  <outline>
    <contour>
      <point x="142" y="1226" type="line"/>
      <point x="371" y="1226" type="line"/>
      <point x="371" y="1435" type="line"/>
      <point x="142" y="1435" type="line"/>
    </contour>
    <contour>
      <point x="142" y="0" type="line"/>
      <point x="371" y="0" type="line"/>
      <point x="371" y="1026" type="line"/>
      <point x="142" y="1026" type="line"/>
    </contour>
  </outline>
</glyph>
<glyph name="j" format="1">
  <advance width="563"/>
  <unicode hex="006A"/>
  <outline>
    <contour>
      <point x="73" y="-362" type="curve" smooth="yes"/>
      <point x="25" y="-362"/>
      <point x="-22" y="-360"/>
      <point x="-82" y="-351" type="curve"/>
      <point x="-66" y="-182" type="line"/>
      <point x="-33" y="-186"/>
      <point x="-5" y="-188"/>
      <point x="21" y="-188" type="curve" smooth="yes"/>
      <point x="156" y="-188"/>
      <point x="196" y="-125"/>
      <point x="196" y="62" type="curve" smooth="yes"/>
      <point x="196" y="1026" type="line"/>
      <point x="431" y="1026" type="line"/>
      <point x="431" y="39" type="line" smooth="yes"/>
      <point x="431" y="-190"/>
      <point x="369" y="-362"/>
    </contour>
    <contour>
      <point x="196" y="1226" type="line"/>
      <point x="196" y="1435" type="line"/>
      <point x="431" y="1435" type="line"/>
      <point x="431" y="1226" type="line"/>
    </contour>
  </outline>
</glyph>
<glyph name="k" format="1">
  <advance width="1091"/>
  <unicode hex="006B"/>
  <outline>
    <contour>
      <point x="148" y="0" type="line"/>
      <point x="148" y="1463" type="line"/>
      <point x="384" y="1463" type="line"/>
      <point x="384" y="604" type="line"/>
      <point x="769" y="1026" type="line"/>
      <point x="1094" y="1026" type="line"/>
      <point x="599" y="532" type="line"/>
      <point x="1127" y="0" type="line"/>
      <point x="814" y="0" type="line"/>
      <point x="384" y="452" type="line"/>
      <point x="384" y="0" type="line"/>
    </contour>
  </outline>
</glyph>
<glyph name="l" format="1">
  <advance width="518"/>
  <unicode hex="006C"/>
  <outline>
    <contour>
      <point x="142" y="0" type="line"/>
      <point x="376" y="0" type="line"/>
      <point x="376" y="1463" type="line"/>
      <point x="142" y="1463" type="line"/>
    </contour>
  </outline>
</glyph>
<glyph name="n" format="1">
  <advance width="1199"/>
  <unicode hex="006E"/>
  <outline>
    <contour>
      <point x="160" y="0" type="line"/>
      <point x="160" y="656" type="line" smooth="yes"/>
      <point x="160" y="883"/>
      <point x="142" y="1026"/>
      <point x="142" y="1026" type="curve"/>
      <point x="391" y="1026" type="line"/>
      <point x="391" y="879" type="line"/>
      <point x="452" y="995"/>
      <point x="591" y="1052"/>
      <point x="698" y="1052" type="curve" smooth="yes"/>
      <point x="935" y="1052"/>
      <point x="1067" y="928"/>
      <point x="1067" y="580" type="curve" smooth="yes"/>
      <point x="1067" y="0" type="line"/>
      <point x="831" y="0" type="line"/>
      <point x="831" y="592" type="line" smooth="yes"/>
      <point x="831" y="781"/>
      <point x="792" y="861"/>
      <point x="650" y="861" type="curve" smooth="yes"/>
      <point x="543" y="861"/>
      <point x="396" y="764"/>
      <point x="396" y="620" type="curve" smooth="yes"/>
      <point x="396" y="0" type="line"/>
    </contour>
  </outline>
</glyph>
<glyph name="p" format="1">
  <advance width="1262"/>
  <unicode hex="0070"/>
  <outline>
    <contour>
      <point x="649" y="168" type="curve" smooth="yes"/>
      <point x="459" y="168"/>
      <point x="380" y="328"/>
      <point x="380" y="515" type="curve" smooth="yes"/>
      <point x="380" y="707"/>
      <point x="465" y="861"/>
      <point x="649" y="861" type="curve" smooth="yes"/>
      <point x="833" y="861"/>
      <point x="916" y="707"/>
      <point x="916" y="515" type="curve" smooth="yes"/>
      <point x="916" y="328"/>
      <point x="839" y="168"/>
    </contour>
    <contour>
      <point x="159" y="-400" type="line"/>
      <point x="392" y="-400" type="line"/>
      <point x="392" y="145" type="line"/>
      <point x="408" y="85"/>
      <point x="524" y="-23"/>
      <point x="701" y="-23" type="curve" smooth="yes"/>
      <point x="993" y="-23"/>
      <point x="1162" y="240"/>
      <point x="1162" y="525" type="curve" smooth="yes"/>
      <point x="1162" y="809"/>
      <point x="992" y="1052"/>
      <point x="712" y="1052" type="curve" smooth="yes"/>
      <point x="531" y="1052"/>
      <point x="410" y="944"/>
      <point x="392" y="873" type="curve"/>
      <point x="392" y="1026" type="line"/>
      <point x="142" y="1026" type="line"/>
      <point x="149" y="919"/>
      <point x="159" y="793"/>
      <point x="159" y="692" type="curve" smooth="yes"/>
    </contour>
  </outline>
</glyph>
<glyph name="r" format="1">
  <advance width="780"/>
  <unicode hex="0072"/>
  <outline>
    <contour>
      <point x="160" y="0" type="line"/>
      <point x="160" y="768" type="line" smooth="yes"/>
      <point x="160" y="882"/>
      <point x="142" y="1026"/>
      <point x="142" y="1026" type="curve"/>
      <point x="393" y="1026" type="line"/>
      <point x="393" y="886" type="line"/>
      <point x="465" y="988"/>
      <point x="544" y="1052"/>
      <point x="653" y="1052" type="curve" smooth="yes"/>
      <point x="684" y="1052"/>
      <point x="719" y="1047"/>
      <point x="756" y="1037" type="curve"/>
      <point x="756" y="830" type="line"/>
      <point x="714" y="844"/>
      <point x="672" y="851"/>
      <point x="634" y="851" type="curve" smooth="yes"/>
      <point x="499" y="851"/>
      <point x="396" y="761"/>
      <point x="396" y="579" type="curve" smooth="yes"/>
      <point x="396" y="0" type="line"/>
    </contour>
  </outline>
</glyph>
<glyph name="s" format="1">
  <advance width="1022"/>
  <unicode hex="0073"/>
  <outline>
    <contour>
      <point x="545" y="-23" type="curve" smooth="yes"/>
      <point x="721" y="-23"/>
      <point x="942" y="58"/>
      <point x="942" y="293" type="curve" smooth="yes"/>
      <point x="942" y="495"/>
      <point x="740" y="568"/>
      <point x="579" y="618" type="curve" smooth="yes"/>
      <point x="476" y="651"/>
      <point x="362" y="689"/>
      <point x="362" y="759" type="curve" smooth="yes"/>
      <point x="362" y="853"/>
      <point x="464" y="861"/>
      <point x="528" y="861" type="curve" smooth="yes"/>
      <point x="598" y="861"/>
      <point x="706" y="851"/>
      <point x="818" y="782" type="curve"/>
      <point x="884" y="951" type="line"/>
      <point x="810" y="1011"/>
      <point x="690" y="1052"/>
      <point x="511" y="1052" type="curve" smooth="yes"/>
      <point x="341" y="1052"/>
      <point x="121" y="974"/>
      <point x="121" y="756" type="curve" smooth="yes"/>
      <point x="121" y="529"/>
      <point x="325" y="469"/>
      <point x="498" y="417" type="curve" smooth="yes"/>
      <point x="608" y="384"/>
      <point x="703" y="355"/>
      <point x="703" y="289" type="curve" smooth="yes"/>
      <point x="703" y="201"/>
      <point x="624" y="168"/>
      <point x="511" y="168" type="curve" smooth="yes"/>
      <point x="386" y="168"/>
      <point x="249" y="219"/>
      <point x="172" y="273" type="curve"/>
      <point x="116" y="98" type="line"/>
      <point x="191" y="36"/>
      <point x="344" y="-23"/>
    </contour>
  </outline>
</glyph>
<glyph name="t" format="1">
  <advance width="800"/>
  <unicode hex="0074"/>
  <outline>
    <contour>
      <point x="733" y="1" type="line"/>
      <point x="733" y="182" type="line"/>
      <point x="593" y="182"/>
      <point x="452" y="180"/>
      <point x="452" y="360" type="curve" smooth="yes"/>
      <point x="452" y="868" type="line"/>
      <point x="717" y="868" type="line"/>
      <point x="717" y="1026" type="line"/>
      <point x="452" y="1026" type="line"/>
      <point x="452" y="1340" type="line"/>
      <point x="225" y="1271" type="line"/>
      <point x="225" y="1026" type="line"/>
      <point x="48" y="1026" type="line"/>
      <point x="48" y="868" type="line"/>
      <point x="217" y="868" type="line"/>
      <point x="217" y="388" type="line" smooth="yes"/>
      <point x="217" y="14"/>
      <point x="482" y="1"/>
      <point x="687" y="1" type="curve" smooth="yes"/>
    </contour>
  </outline>
</glyph>
<glyph name="u" format="1">
  <advance width="1201"/>
  <unicode hex="0075"/>
  <outline>
    <contour>
      <point x="534" y="-23" type="curve" smooth="yes"/>
      <point x="641" y="-23"/>
      <point x="775" y="40"/>
      <point x="808" y="107" type="curve"/>
      <point x="813" y="0" type="line"/>
      <point x="1059" y="0" type="line"/>
      <point x="1059" y="0"/>
      <point x="1041" y="153"/>
      <point x="1041" y="272" type="curve" smooth="yes"/>
      <point x="1041" y="1026" type="line"/>
      <point x="805" y="1026" type="line"/>
      <point x="805" y="412" type="line" smooth="yes"/>
      <point x="805" y="284"/>
      <point x="719" y="168"/>
      <point x="567" y="168" type="curve" smooth="yes"/>
      <point x="440" y="168"/>
      <point x="366" y="241"/>
      <point x="366" y="388" type="curve" smooth="yes"/>
      <point x="366" y="1026" type="line"/>
      <point x="132" y="1026" type="line"/>
      <point x="132" y="396" type="line" smooth="yes"/>
      <point x="132" y="195"/>
      <point x="216" y="-23"/>
    </contour>
  </outline>
</glyph>
<glyph name="v" format="1">
  <advance width="1106"/>
  <unicode hex="0076"/>
  <outline>
    <contour>
      <point x="444" y="0" type="line"/>
      <point x="12" y="1026" type="line"/>
      <point x="274" y="1026" type="line"/>
      <point x="478" y="482" type="line"/>
      <point x="562" y="260" type="line"/>
      <point x="642" y="482" type="line"/>
      <point x="839" y="1026" type="line"/>
      <point x="1094" y="1026" type="line"/>
      <point x="660" y="0" type="line"/>
    </contour>
  </outline>
</glyph>
<glyph name="w" format="1">
  <advance width="1677"/>
  <unicode hex="0077"/>
  <outline>
    <contour>
      <point x="386" y="0" type="line"/>
      <point x="18" y="1026" type="line"/>
      <point x="271" y="1026" type="line"/>
      <point x="458" y="447" type="line"/>
      <point x="509" y="288" type="line"/>
      <point x="560" y="441" type="line"/>
      <point x="757" y="1026" type="line"/>
      <point x="963" y="1026" type="line"/>
      <point x="1157" y="419" type="line"/>
      <point x="1200" y="286" type="line"/>
      <point x="1241" y="415" type="line"/>
      <point x="1438" y="1026" type="line"/>
      <point x="1659" y="1026" type="line"/>
      <point x="1281" y="0" type="line"/>
      <point x="1081" y="0" type="line"/>
      <point x="887" y="586" type="line"/>
      <point x="842" y="724" type="line"/>
      <point x="793" y="586" type="line"/>
      <point x="587" y="0" type="line"/>
    </contour>
  </outline>
</glyph>
<glyph name="x" format="1">
  <advance width="1044"/>
  <unicode hex="0078"/>
  <outline>
    <contour>
      <point x="20" y="0" type="line"/>
      <point x="268" y="0" type="line"/>
      <point x="523.886" y="348.658" type="line"/>
      <point x="764" y="0" type="line"/>
      <point x="1024" y="0" type="line"/>
      <point x="658.092" y="531.52" type="line"/>
      <point x="1021" y="1026" type="line"/>
      <point x="777" y="1026" type="line"/>
      <point x="525.743" y="685.458" type="line"/>
      <point x="299" y="1026" type="line"/>
      <point x="38" y="1026" type="line"/>
      <point x="390.564" y="502.244" type="line"/>
    </contour>
  </outline>
</glyph>
<glyph name="y" format="1">
  <advance width="1147"/>
  <unicode hex="0079"/>
  <outline>
    <contour>
      <point x="247" y="-406" type="line"/>
      <point x="459" y="-364"/>
      <point x="612" y="-263"/>
      <point x="700" y="-49" type="curve"/>
      <point x="1123" y="1026" type="line"/>
      <point x="872" y="1026" type="line"/>
      <point x="602" y="295" type="line"/>
      <point x="300" y="1026" type="line"/>
      <point x="44" y="1026" type="line"/>
      <point x="481" y="27" type="line"/>
      <point x="471" y="-7" type="line" smooth="yes"/>
      <point x="446" y="-89"/>
      <point x="370" y="-179"/>
      <point x="144" y="-240" type="curve"/>
    </contour>
  </outline>
</glyph>
<glyph name="z" format="1">
  <advance width="1040"/>
  <unicode hex="007A"/>
  <outline>
    <contour>
      <point x="142" y="0" type="line"/>
      <point x="972" y="0" type="line"/>
      <point x="950" y="188" type="line"/>
      <point x="445" y="188" type="line"/>
      <point x="939" y="903" type="line"/>
      <point x="939" y="1026" type="line"/>
      <point x="164" y="1026" type="line"/>
      <point x="164" y="837" type="line"/>
      <point x="637" y="837" type="line"/>
      <point x="142" y="125" type="line"/>
    </contour>
  </outline>
</glyph>
<glyph name="braceleft" format="1">
  <advance width="627"/>
  <unicode hex="007B"/>
  <outline>
    <contour>
      <point x="579" y="-187" type="curve"/>
      <point x="579" y="-2" type="line"/>
      <point x="503" y="-1"/>
      <point x="440" y="7"/>
      <point x="439" y="131" type="curve"/>
      <point x="439" y="390" type="line"/>
      <point x="438" y="540"/>
      <point x="372" y="596"/>
      <point x="298" y="642" type="curve"/>
      <point x="370" y="675"/>
      <point x="439" y="739"/>
      <point x="439" y="834" type="curve" smooth="yes"/>
      <point x="439" y="1054" type="line" smooth="yes"/>
      <point x="439" y="1202"/>
      <point x="444" y="1297"/>
      <point x="582" y="1297" type="curve"/>
      <point x="580" y="1483" type="line"/>
      <point x="255" y="1483"/>
      <point x="196" y="1314"/>
      <point x="196" y="1118" type="curve" smooth="yes"/>
      <point x="196" y="908" type="line" smooth="yes"/>
      <point x="196" y="791"/>
      <point x="154" y="734"/>
      <point x="49" y="734" type="curve"/>
      <point x="49" y="566" type="line"/>
      <point x="152" y="566"/>
      <point x="197" y="522"/>
      <point x="197" y="374" type="curve" smooth="yes"/>
      <point x="197" y="169" type="line" smooth="yes"/>
      <point x="197" y="-40"/>
      <point x="256" y="-187"/>
    </contour>
  </outline>
</glyph>
<glyph name="braceright" format="1">
  <advance width="627"/>
  <unicode hex="007D"/>
  <outline>
    <contour>
      <point x="31" y="-245" type="line"/>
      <point x="356" y="-245"/>
      <point x="415" y="-76"/>
      <point x="415" y="120" type="curve" smooth="yes"/>
      <point x="415" y="330" type="line" smooth="yes"/>
      <point x="415" y="447"/>
      <point x="457" y="504"/>
      <point x="562" y="504" type="curve"/>
      <point x="562" y="672" type="line"/>
      <point x="459" y="672"/>
      <point x="414" y="716"/>
      <point x="414" y="864" type="curve" smooth="yes"/>
      <point x="414" y="1069" type="line" smooth="yes"/>
      <point x="414" y="1278"/>
      <point x="355" y="1425"/>
      <point x="32" y="1425" type="curve"/>
      <point x="32" y="1240" type="line"/>
      <point x="108" y="1239"/>
      <point x="171" y="1231"/>
      <point x="172" y="1107" type="curve"/>
      <point x="172" y="848" type="line"/>
      <point x="173" y="698"/>
      <point x="239" y="642"/>
      <point x="313" y="596" type="curve"/>
      <point x="241" y="563"/>
      <point x="172" y="499"/>
      <point x="172" y="404" type="curve" smooth="yes"/>
      <point x="172" y="184" type="line" smooth="yes"/>
      <point x="172" y="36"/>
      <point x="167" y="-59"/>
      <point x="29" y="-59" type="curve"/>
    </contour>
  </outline>
</glyph>
<glyph name="cent" format="1">
  <advance width="1067"/>
  <unicode hex="00A2"/>
  <outline>
    <component base="c"/>
    <contour>
      <point x="553" y="-236" type="line"/>
      <point x="705" y="-236" type="line"/>
      <point x="705" y="1250" type="line"/>
      <point x="553" y="1250" type="line"/>
    </contour>
  </outline>
</glyph>
<glyph name="sterling" format="1">
  <advance width="1264"/>
  <unicode hex="00A3"/>
  <outline>
    <contour>
      <point x="168" y="0" type="line"/>
      <point x="165" y="179" type="line"/>
      <point x="246" y="252"/>
      <point x="339" y="335"/>
      <point x="339" y="616" type="curve" smooth="yes"/>
      <point x="339" y="661" type="line"/>
      <point x="167" y="661" type="line"/>
      <point x="167" y="838" type="line"/>
      <point x="336" y="838" type="line"/>
      <point x="336" y="901" type="line" smooth="yes"/>
      <point x="336" y="1220"/>
      <point x="419" y="1483"/>
      <point x="820" y="1483" type="curve" smooth="yes"/>
      <point x="952" y="1483"/>
      <point x="1058" y="1460"/>
      <point x="1147" y="1410" type="curve"/>
      <point x="1091" y="1227" type="line"/>
      <point x="1013" y="1263"/>
      <point x="932" y="1290"/>
      <point x="837" y="1290" type="curve" smooth="yes"/>
      <point x="657" y="1290"/>
      <point x="575" y="1195"/>
      <point x="575" y="955" type="curve" smooth="yes"/>
      <point x="575" y="920"/>
      <point x="576" y="878"/>
      <point x="580" y="838" type="curve"/>
      <point x="892" y="838" type="line"/>
      <point x="892" y="661" type="line"/>
      <point x="588" y="661" type="line"/>
      <point x="588" y="648"/>
      <point x="588" y="632"/>
      <point x="587" y="612" type="curve" smooth="yes"/>
      <point x="581" y="496"/>
      <point x="558" y="277"/>
      <point x="496" y="195" type="curve"/>
      <point x="1158" y="195" type="line"/>
      <point x="1158" y="0" type="line"/>
    </contour>
  </outline>
</glyph>
<glyph name="currency" format="1">
  <advance width="1218"/>
  <unicode hex="00A4"/>
  <outline>
    <contour>
      <point x="609" y="710" type="curve" smooth="yes"/>
      <point x="435" y="710"/>
      <point x="307" y="847"/>
      <point x="307" y="1021" type="curve" smooth="yes"/>
      <point x="307" y="1195"/>
      <point x="435" y="1331"/>
      <point x="609" y="1331" type="curve" smooth="yes"/>
      <point x="783" y="1331"/>
      <point x="911" y="1195"/>
      <point x="911" y="1021" type="curve" smooth="yes"/>
      <point x="911" y="847"/>
      <point x="783" y="710"/>
    </contour>
    <contour>
      <point x="1048" y="543" type="line"/>
      <point x="1099" y="594" type="line"/>
      <point x="913" y="779" type="line"/>
      <point x="969" y="846"/>
      <point x="1002" y="931"/>
      <point x="1002" y="1024" type="curve" smooth="yes"/>
      <point x="1002" y="1122"/>
      <point x="966" y="1210"/>
      <point x="906" y="1278" type="curve"/>
      <point x="1099" y="1471" type="line"/>
      <point x="1048" y="1522" type="line"/>
      <point x="853" y="1327" type="line"/>
      <point x="786" y="1378"/>
      <point x="702" y="1409"/>
      <point x="610" y="1409" type="curve" smooth="yes"/>
      <point x="518" y="1409"/>
      <point x="433" y="1378"/>
      <point x="367" y="1326" type="curve"/>
      <point x="170" y="1522" type="line"/>
      <point x="119" y="1471" type="line"/>
      <point x="314" y="1276" type="line"/>
      <point x="255" y="1209"/>
      <point x="219" y="1121"/>
      <point x="219" y="1024" type="curve" smooth="yes"/>
      <point x="219" y="931"/>
      <point x="252" y="847"/>
      <point x="307" y="781" type="curve"/>
      <point x="120" y="594" type="line"/>
      <point x="171" y="543" type="line"/>
      <point x="358" y="730" type="line"/>
      <point x="426" y="673"/>
      <point x="514" y="639"/>
      <point x="610" y="639" type="curve" smooth="yes"/>
      <point x="706" y="639"/>
      <point x="794" y="673"/>
      <point x="862" y="729" type="curve"/>
    </contour>
  </outline>
</glyph>
<glyph name="yen" format="1">
  <advance width="1264"/>
  <unicode hex="00A5"/>
  <outline>
    <contour>
      <point x="1108" y="272" type="line"/>
      <point x="138" y="272" type="line"/>
      <point x="138" y="433" type="line"/>
      <point x="544" y="433" type="line"/>
      <point x="544" y="539" type="line"/>
      <point x="138" y="539" type="line"/>
      <point x="138" y="706" type="line"/>
      <point x="1106" y="706" type="line"/>
      <point x="1106" y="539" type="line"/>
      <point x="687" y="539" type="line"/>
      <point x="687" y="433" type="line"/>
      <point x="1108" y="433" type="line"/>
    </contour>
    <component base="Y" xOffset="-19"/>
  </outline>
</glyph>
<glyph name="ordfeminine" format="1">
  <advance width="745"/>
  <unicode hex="00AA"/>
  <outline>
    <contour>
      <point x="258" y="716" type="curve" smooth="yes"/>
      <point x="382" y="716"/>
      <point x="455" y="769"/>
      <point x="501" y="892" type="curve"/>
      <point x="516" y="747" type="line"/>
      <point x="686" y="747" type="line"/>
      <point x="682.902198493" y="775.49977386"/>
      <point x="679.42054202" y="795.938593414"/>
      <point x="677.219779672" y="892.980841099" type="curve" smooth="yes"/>
      <point x="675.868406186" y="952.569428994"/>
      <point x="675.0" y="1041.04170847"/>
      <point x="675" y="1178" type="curve" smooth="yes"/>
      <point x="675" y="1388"/>
      <point x="538" y="1448"/>
      <point x="380" y="1448" type="curve" smooth="yes"/>
      <point x="262" y="1448"/>
      <point x="157" y="1430"/>
      <point x="83" y="1386" type="curve"/>
      <point x="147" y="1244" type="line"/>
      <point x="217" y="1271"/>
      <point x="297" y="1295"/>
      <point x="361" y="1295" type="curve" smooth="yes"/>
      <point x="436" y="1295"/>
      <point x="491" y="1263"/>
      <point x="491" y="1169" type="curve" smooth="yes"/>
      <point x="491" y="1163"/>
      <point x="490" y="1156"/>
      <point x="490" y="1149" type="curve"/>
      <point x="423.593298733" y="1147.51959583"/>
      <point x="364.655916156" y="1142.72943368"/>
      <point x="312.998671592" y="1134.65789065" type="curve" smooth="yes"/>
      <point x="120.397814434" y="1104.56363921"/>
      <point x="29.0" y="1028.85408092"/>
      <point x="29" y="909" type="curve" smooth="yes"/>
      <point x="29" y="772"/>
      <point x="134" y="716"/>
    </contour>
    <contour>
      <point x="297" y="838" type="curve" smooth="yes"/>
      <point x="237" y="838"/>
      <point x="221" y="865"/>
      <point x="221" y="907" type="curve" smooth="yes"/>
      <point x="221" y="1014"/>
      <point x="375" y="1024"/>
      <point x="489" y="1031" type="curve"/>
      <point x="488.915256975" y="1029.54524474"/>
      <point x="488.810565672" y="1028.09308276"/>
      <point x="488.686281091" y="1026.643731" type="curve" smooth="yes"/>
      <point x="480.01093301" y="925.475662707"/>
      <point x="375.870093003" y="838.0"/>
    </contour>
  </outline>
</glyph>
<glyph name="uni00AD" format="1">
  <advance width="728"/>
  <unicode hex="00AD"/>
  <outline>
    <contour>
      <point x="44" y="1196" type="line"/>
      <point x="44" y="1367" type="line"/>
      <point x="661" y="1367" type="line"/>
      <point x="661" y="1196" type="line"/>
    </contour>
  </outline>
</glyph>
<glyph name="macron" format="1">
  <advance width="749"/>
  <unicode hex="00AF"/>
  <outline>
    <contour>
      <point x="66" y="1285" type="line"/>
      <point x="66" y="1456" type="line"/>
      <point x="683" y="1456" type="line"/>
      <point x="683" y="1285" type="line"/>
    </contour>
  </outline>
</glyph>
<glyph name="degree" format="1">
  <advance width="844"/>
  <unicode hex="00B0"/>
  <outline>
    <contour>
      <point x="395" y="987" type="curve" smooth="yes"/>
      <point x="491" y="987"/>
      <point x="569" y="1065"/>
      <point x="569" y="1161" type="curve" smooth="yes"/>
      <point x="569" y="1257"/>
      <point x="491" y="1333"/>
      <point x="395" y="1333" type="curve" smooth="yes"/>
      <point x="299" y="1333"/>
      <point x="220" y="1257"/>
      <point x="220" y="1161" type="curve" smooth="yes"/>
      <point x="220" y="1065"/>
      <point x="299" y="987"/>
    </contour>
    <contour>
      <point x="395" y="864" type="curve" smooth="yes"/>
      <point x="226" y="864"/>
      <point x="87" y="991"/>
      <point x="87" y="1161" type="curve" smooth="yes"/>
      <point x="87" y="1330"/>
      <point x="226" y="1456"/>
      <point x="395" y="1456" type="curve" smooth="yes"/>
      <point x="564" y="1456"/>
      <point x="703" y="1330"/>
      <point x="703" y="1161" type="curve" smooth="yes"/>
      <point x="703" y="991"/>
      <point x="564" y="864"/>
    </contour>
  </outline>
</glyph>
<glyph name="plusminus" format="1">
  <advance width="1264"/>
  <unicode hex="00B1"/>
  <outline>
    <contour>
      <point x="518" y="249" type="line"/>
      <point x="518" y="557" type="line"/>
      <point x="191" y="557" type="line"/>
      <point x="191" y="749" type="line"/>
      <point x="513" y="749" type="line"/>
      <point x="513" y="1062" type="line"/>
      <point x="737" y="1062" type="line"/>
      <point x="737" y="749" type="line"/>
      <point x="1070" y="749" type="line"/>
      <point x="1070" y="557" type="line"/>
      <point x="746" y="557" type="line"/>
      <point x="746" y="249" type="line"/>
    </contour>
    <contour>
      <point x="189" y="0" type="line"/>
      <point x="189" y="172" type="line"/>
      <point x="1076" y="172" type="line"/>
      <point x="1076" y="0" type="line"/>
    </contour>
  </outline>
</glyph>
<glyph name="twosuperior" format="1">
  <advance width="1096"/>
  <unicode hex="00B2"/>
  <outline>
    <contour>
      <point x="257" y="614" type="line"/>
      <point x="257" y="775" type="line"/>
      <point x="600" y="1050"/>
      <point x="658" y="1143"/>
      <point x="658" y="1206" type="curve" smooth="yes"/>
      <point x="658" y="1271"/>
      <point x="612" y="1297"/>
      <point x="548" y="1297" type="curve" smooth="yes"/>
      <point x="478" y="1297"/>
      <point x="386" y="1265"/>
      <point x="311" y="1219" type="curve"/>
      <point x="246" y="1367" type="line"/>
      <point x="341" y="1429"/>
      <point x="457" y="1463"/>
      <point x="561" y="1463" type="curve" smooth="yes"/>
      <point x="719" y="1463"/>
      <point x="852" y="1385"/>
      <point x="852" y="1208" type="curve" smooth="yes"/>
      <point x="852" y="1046"/>
      <point x="698" y="917"/>
      <point x="530" y="791" type="curve"/>
      <point x="841" y="791" type="line"/>
      <point x="841" y="614" type="line"/>
    </contour>
  </outline>
</glyph>
<glyph name="threesuperior" format="1">
  <advance width="967"/>
  <unicode hex="00B3"/>
  <outline>
    <contour>
      <point x="829" y="686"/>
      <point x="684" y="603"/>
      <point x="523" y="603" type="curve" smooth="yes"/>
      <point x="422" y="603"/>
      <point x="315" y="636"/>
      <point x="233" y="697" type="curve"/>
      <point x="294" y="823" type="line"/>
      <point x="378" y="770"/>
      <point x="451" y="747"/>
      <point x="509" y="747" type="curve" smooth="yes"/>
      <point x="596" y="747"/>
      <point x="648" y="798"/>
      <point x="648" y="872" type="curve" smooth="yes"/>
      <point x="648" y="939"/>
      <point x="586" y="984"/>
      <point x="482" y="984" type="curve" smooth="yes"/>
      <point x="395" y="984" type="line"/>
      <point x="395" y="1121" type="line"/>
      <point x="479" y="1121" type="line" smooth="yes"/>
      <point x="563" y="1121"/>
      <point x="626" y="1161"/>
      <point x="626" y="1221" type="curve" smooth="yes"/>
      <point x="626" y="1290"/>
      <point x="575" y="1323"/>
      <point x="501" y="1323" type="curve" smooth="yes"/>
      <point x="439" y="1323"/>
      <point x="361" y="1300"/>
      <point x="284" y="1255" type="curve"/>
      <point x="224" y="1373" type="line"/>
      <point x="318" y="1430"/>
      <point x="430" y="1461"/>
      <point x="530" y="1461" type="curve" smooth="yes"/>
      <point x="678" y="1461"/>
      <point x="800" y="1393"/>
      <point x="800" y="1244" type="curve" smooth="yes"/>
      <point x="800" y="1181"/>
      <point x="774" y="1104"/>
      <point x="659" y="1067" type="curve"/>
      <point x="786" y="1034"/>
      <point x="829" y="949"/>
      <point x="829" y="869" type="curve" smooth="yes"/>
    </contour>
  </outline>
</glyph>
<glyph name="micro" format="1">
  <advance width="1191"/>
  <unicode hex="00B5"/>
  <outline>
    <contour>
      <point x="132.0" y="-227.0" type="line"/>
      <point x="372.0" y="-227.0" type="line"/>
      <point x="372.0" y="-227.0"/>
      <point x="372.0" y="24.0"/>
      <point x="372.0" y="24.0" type="curve"/>
      <point x="406.0" y="-5.0"/>
      <point x="471.0" y="-23.0"/>
      <point x="531.0" y="-23.0" type="curve" smooth="yes"/>
      <point x="636.0" y="-23.0"/>
      <point x="757.0" y="28.0"/>
      <point x="806.0" y="152.0" type="curve"/>
      <point x="810.0" y="0.0" type="line"/>
      <point x="1055.0" y="0.0" type="line"/>
      <point x="1045.0" y="92.0"/>
      <point x="1041.0" y="166.0"/>
      <point x="1041.0" y="262.0" type="curve" smooth="yes"/>
      <point x="1041.0" y="1026.0" type="line"/>
      <point x="803.0" y="1026.0" type="line"/>
      <point x="803.0" y="422.0" type="line" smooth="yes"/>
      <point x="803.0" y="227.0"/>
      <point x="716.0" y="167.0"/>
      <point x="564.0" y="167.0" type="curve" smooth="yes"/>
      <point x="420.0" y="167.0"/>
      <point x="367.0" y="267.0"/>
      <point x="367.0" y="444.0" type="curve"/>
      <point x="363.0" y="1026.0" type="line"/>
      <point x="132.0" y="1026.0" type="line"/>
    </contour>
  </outline>
</glyph>
<glyph name="periodcentered" format="1">
  <advance width="571"/>
  <unicode hex="00B7"/>
  <outline>
    <contour>
      <point x="146" y="547" type="line"/>
      <point x="146" y="809" type="line"/>
      <point x="425" y="809" type="line"/>
      <point x="425" y="547" type="line"/>
    </contour>
  </outline>
</glyph>
<glyph name="cedilla" format="1">
  <advance width="529"/>
  <unicode hex="00B8"/>
  <outline>
    <contour>
      <point x="240" y="-419" type="curve" smooth="yes"/>
      <point x="410" y="-419"/>
      <point x="502" y="-328"/>
      <point x="502" y="-239" type="curve" smooth="yes"/>
      <point x="502" y="-165"/>
      <point x="423" y="-91"/>
      <point x="253" y="-73" type="curve"/>
      <point x="271" y="31" type="line"/>
      <point x="156" y="31" type="line"/>
      <point x="125" y="-150" type="line"/>
      <point x="132.175" y="-150"/>
      <point x="139.052" y="-150.093"/>
      <point x="145.642" y="-150.275" type="curve" smooth="yes"/>
      <point x="266.716" y="-153.608"/>
      <point x="291" y="-186.703"/>
      <point x="291" y="-218" type="curve" smooth="yes"/>
      <point x="291" y="-248"/>
      <point x="268" y="-277"/>
      <point x="222" y="-277" type="curve" smooth="yes"/>
      <point x="185" y="-277"/>
      <point x="122" y="-269"/>
      <point x="43" y="-259" type="curve"/>
      <point x="29" y="-395" type="line"/>
      <point x="106" y="-407"/>
      <point x="183" y="-419"/>
    </contour>
  </outline>
</glyph>
<glyph name="onesuperior" format="1">
  <advance width="921"/>
  <unicode hex="00B9"/>
  <outline>
    <contour>
      <point x="205" y="621" type="line"/>
      <point x="205" y="776" type="line"/>
      <point x="404" y="776" type="line"/>
      <point x="404" y="1270" type="line"/>
      <point x="190" y="1215" type="line"/>
      <point x="190" y="1377" type="line"/>
      <point x="442" y="1456" type="line"/>
      <point x="591" y="1456" type="line"/>
      <point x="591" y="774" type="line"/>
      <point x="766" y="774" type="line"/>
      <point x="766" y="621" type="line"/>
    </contour>
  </outline>
</glyph>
<glyph name="ordmasculine" format="1">
  <advance width="824"/>
  <unicode hex="00BA"/>
  <outline>
    <contour>
      <point x="413" y="884" type="curve" smooth="yes"/>
      <point x="520" y="884"/>
      <point x="577" y="976"/>
      <point x="577" y="1081" type="curve" smooth="yes"/>
      <point x="577" y="1194"/>
      <point x="520" y="1283"/>
      <point x="414" y="1283" type="curve" smooth="yes"/>
      <point x="309" y="1283"/>
      <point x="248" y="1191"/>
      <point x="248" y="1084" type="curve" smooth="yes"/>
      <point x="248" y="973"/>
      <point x="301" y="884"/>
    </contour>
    <contour>
      <point x="416" y="720" type="curve" smooth="yes"/>
      <point x="163" y="720"/>
      <point x="32" y="878"/>
      <point x="32" y="1086" type="curve" smooth="yes"/>
      <point x="32" y="1288"/>
      <point x="172" y="1447"/>
      <point x="413" y="1447" type="curve" smooth="yes"/>
      <point x="656" y="1447"/>
      <point x="792" y="1284"/>
      <point x="792" y="1082" type="curve" smooth="yes"/>
      <point x="792" y="884"/>
      <point x="658" y="720"/>
    </contour>
  </outline>
</glyph>
<glyph name="guillemotright" format="1">
  <advance width="1166"/>
  <unicode hex="00BB"/>
  <outline>
    <contour>
      <point x="774" y="921" type="line"/>
      <point x="1050" y="540" type="line"/>
      <point x="768" y="160" type="line"/>
      <point x="575" y="160" type="line"/>
      <point x="815" y="541" type="line"/>
      <point x="583" y="921" type="line"/>
    </contour>
    <contour>
      <point x="335" y="921" type="line"/>
      <point x="611" y="540" type="line"/>
      <point x="329" y="160" type="line"/>
      <point x="136" y="160" type="line"/>
      <point x="376" y="541" type="line"/>
      <point x="144" y="921" type="line"/>
    </contour>
  </outline>
</glyph>
<glyph name="onequarter" format="1">
  <advance width="2095"/>
  <unicode hex="00BC"/>
  <outline>
    <contour>
      <point x="1689" y="1" type="line"/>
      <point x="1689" y="194" type="line"/>
      <point x="1319" y="194" type="line"/>
      <point x="1319" y="304" type="line"/>
      <point x="1687" y="811" type="line"/>
      <point x="1861" y="811" type="line"/>
      <point x="1861" y="324" type="line"/>
      <point x="1977" y="324" type="line"/>
      <point x="1977" y="194" type="line"/>
      <point x="1861" y="194" type="line"/>
      <point x="1861" y="1" type="line"/>
    </contour>
    <contour>
      <point x="1495" y="324" type="line"/>
      <point x="1687" y="324" type="line"/>
      <point x="1687" y="596" type="line"/>
    </contour>
    <contour>
      <point x="602" y="0" type="line"/>
      <point x="1490" y="1456" type="line"/>
      <point x="1694" y="1456" type="line"/>
      <point x="807" y="0" type="line"/>
    </contour>
    <contour>
      <point x="227" y="621" type="line"/>
      <point x="227" y="776" type="line"/>
      <point x="426" y="776" type="line"/>
      <point x="426" y="1270" type="line"/>
      <point x="212" y="1215" type="line"/>
      <point x="212" y="1377" type="line"/>
      <point x="464" y="1456" type="line"/>
      <point x="613" y="1456" type="line"/>
      <point x="613" y="774" type="line"/>
      <point x="788" y="774" type="line"/>
      <point x="788" y="621" type="line"/>
    </contour>
  </outline>
</glyph>
<glyph name="onehalf" format="1">
  <advance width="2472"/>
  <unicode hex="00BD"/>
  <outline>
    <contour>
      <point x="601" y="0" type="line"/>
      <point x="1489" y="1456" type="line"/>
      <point x="1693" y="1456" type="line"/>
      <point x="806" y="0" type="line"/>
    </contour>
    <contour>
      <point x="205.0" y="621.0" type="line"/>
      <point x="205.0" y="776.0" type="line"/>
      <point x="404.0" y="776.0" type="line"/>
      <point x="404.0" y="1270.0" type="line"/>
      <point x="190.0" y="1215.0" type="line"/>
      <point x="190.0" y="1377.0" type="line"/>
      <point x="442.0" y="1456.0" type="line"/>
      <point x="591.0" y="1456.0" type="line"/>
      <point x="591.0" y="774.0" type="line"/>
      <point x="766.0" y="774.0" type="line"/>
      <point x="766.0" y="621.0" type="line"/>
    </contour>
    <contour>
      <point x="1539" y="0" type="line"/>
      <point x="1539" y="161" type="line"/>
      <point x="1882" y="436"/>
      <point x="1940" y="529"/>
      <point x="1940" y="592" type="curve" smooth="yes"/>
      <point x="1940" y="657"/>
      <point x="1894" y="683"/>
      <point x="1830" y="683" type="curve" smooth="yes"/>
      <point x="1760" y="683"/>
      <point x="1668" y="651"/>
      <point x="1593" y="605" type="curve"/>
      <point x="1528" y="753" type="line"/>
      <point x="1623" y="815"/>
      <point x="1739" y="849"/>
      <point x="1843" y="849" type="curve" smooth="yes"/>
      <point x="2001" y="849"/>
      <point x="2134" y="771"/>
      <point x="2134" y="594" type="curve" smooth="yes"/>
      <point x="2134" y="432"/>
      <point x="1980" y="303"/>
      <point x="1812" y="177" type="curve"/>
      <point x="2123" y="177" type="line"/>
      <point x="2123" y="0" type="line"/>
    </contour>
  </outline>
</glyph>
<glyph name="threequarters" format="1">
  <advance width="2455"/>
  <unicode hex="00BE"/>
  <outline>
    <contour>
      <point x="1894.5" y="323" type="line"/>
      <point x="1982.5" y="459"/>
      <point x="2014.5" y="510"/>
      <point x="2039.5" y="552" type="curve"/>
      <point x="2039.5" y="323" type="line"/>
    </contour>
    <contour>
      <point x="745" y="0" type="line"/>
      <point x="980" y="0" type="line"/>
      <point x="1867" y="1409" type="line"/>
      <point x="1633" y="1409" type="line"/>
    </contour>
    <contour>
      <point x="2041.5" y="0" type="line"/>
      <point x="2229.5" y="0" type="line"/>
      <point x="2229.5" y="175" type="line"/>
      <point x="2345.5" y="175" type="line"/>
      <point x="2345.5" y="323" type="line"/>
      <point x="2230.5" y="323" type="line"/>
      <point x="2230.5" y="810" type="line"/>
      <point x="2046.5" y="810" type="line"/>
      <point x="1687.5" y="303" type="line"/>
      <point x="1687.5" y="175" type="line"/>
      <point x="2041.5" y="175" type="line"/>
    </contour>
    <contour>
      <point x="592" y="547" type="curve" smooth="yes"/>
      <point x="755" y="547"/>
      <point x="891" y="630"/>
      <point x="891" y="813" type="curve" smooth="yes"/>
      <point x="891" y="893"/>
      <point x="848" y="958"/>
      <point x="751" y="1001" type="curve"/>
      <point x="846" y="1038"/>
      <point x="871" y="1125"/>
      <point x="871" y="1188" type="curve" smooth="yes"/>
      <point x="871" y="1334"/>
      <point x="727" y="1413"/>
      <point x="588" y="1413" type="curve" smooth="yes"/>
      <point x="472" y="1413"/>
      <point x="358" y="1372"/>
      <point x="270" y="1317" type="curve"/>
      <point x="336" y="1169" type="line"/>
      <point x="414" y="1217"/>
      <point x="504" y="1247"/>
      <point x="576" y="1247" type="curve" smooth="yes"/>
      <point x="631" y="1247"/>
      <point x="672" y="1220"/>
      <point x="672" y="1165" type="curve" smooth="yes"/>
      <point x="672" y="1105"/>
      <point x="609" y="1085"/>
      <point x="525" y="1085" type="curve" smooth="yes"/>
      <point x="441" y="1085" type="line"/>
      <point x="441" y="908" type="line"/>
      <point x="528" y="908" type="line" smooth="yes"/>
      <point x="632" y="908"/>
      <point x="694" y="883"/>
      <point x="694" y="816" type="curve" smooth="yes"/>
      <point x="694" y="749"/>
      <point x="653" y="713"/>
      <point x="590" y="713" type="curve" smooth="yes"/>
      <point x="537" y="713"/>
      <point x="442" y="730"/>
      <point x="346" y="791" type="curve"/>
      <point x="279" y="641" type="line"/>
      <point x="376" y="580"/>
      <point x="490" y="547"/>
    </contour>
  </outline>
</glyph>
<glyph name="AE" format="1">
  <advance width="2250"/>
  <unicode hex="00C6"/>
  <outline>
    <contour>
      <point x="624" y="556" type="line"/>
      <point x="1042" y="1209" type="line"/>
      <point x="1046" y="1209" type="line"/>
      <point x="1112" y="556" type="line"/>
    </contour>
    <contour>
      <point x="8" y="0" type="line"/>
      <point x="272" y="0" type="line"/>
      <point x="510" y="364" type="line"/>
      <point x="1134" y="364" type="line"/>
      <point x="1181" y="0" type="line"/>
      <point x="2144" y="0" type="line"/>
      <point x="2114" y="207" type="line"/>
      <point x="1422" y="207" type="line"/>
      <point x="1357" y="641" type="line"/>
      <point x="1983" y="641" type="line"/>
      <point x="1953" y="849" type="line"/>
      <point x="1326" y="849" type="line"/>
      <point x="1266" y="1249" type="line"/>
      <point x="1930" y="1249" type="line"/>
      <point x="1900" y="1456" type="line"/>
      <point x="986" y="1456" type="line"/>
    </contour>
  </outline>
</glyph>
<glyph name="Eth" format="1">
  <advance width="1505"/>
  <unicode hex="00D0"/>
  <outline>
    <contour>
      <point x="26" y="795" type="line"/>
      <point x="643" y="795" type="line"/>
      <point x="643" y="660" type="line"/>
      <point x="26" y="660" type="line"/>
    </contour>
    <component base="D"/>
  </outline>
</glyph>
<glyph name="multiply" format="1">
  <advance width="1458"/>
  <unicode hex="00D7"/>
  <outline>
    <contour>
      <point x="423" y="98" type="line"/>
      <point x="505.864" y="188.92"/>
      <point x="601.472" y="292.844"/>
      <point x="693" y="392" type="curve"/>
      <point x="921" y="96" type="line"/>
      <point x="1084" y="251" type="line"/>
      <point x="1006" y="349"/>
      <point x="921" y="455"/>
      <point x="842" y="552" type="curve"/>
      <point x="1117" y="854" type="line"/>
      <point x="972" y="1003" type="line"/>
      <point x="704" y="710" type="line"/>
      <point x="474" y="1005" type="line"/>
      <point x="318" y="856" type="line"/>
      <point x="553" y="552" type="line"/>
      <point x="277" y="249" type="line"/>
    </contour>
  </outline>
</glyph>
<glyph name="Oslash" format="1">
  <advance width="1663"/>
  <unicode hex="00D8"/>
  <outline>
    <component base="O"/>
    <contour>
      <point x="479" y="-134" type="line"/>
      <point x="1336" y="1493" type="line"/>
      <point x="1200" y="1561" type="line"/>
      <point x="343" y="-66" type="line"/>
    </contour>
  </outline>
</glyph>
<glyph name="germandbls" format="1">
  <advance width="1234"/>
  <unicode hex="00DF"/>
  <outline>
    <contour>
      <point x="764" y="-23" type="curve" smooth="yes"/>
      <point x="646" y="-23"/>
      <point x="513" y="34"/>
      <point x="413" y="160" type="curve"/>
      <point x="514" y="327" type="line"/>
      <point x="609" y="217"/>
      <point x="697" y="168"/>
      <point x="758" y="168" type="curve" smooth="yes"/>
      <point x="837" y="168"/>
      <point x="902" y="228"/>
      <point x="902" y="334" type="curve" smooth="yes"/>
      <point x="902" y="494"/>
      <point x="721" y="609"/>
      <point x="514" y="727" type="curve"/>
      <point x="528" y="887" type="line"/>
      <point x="645" y="937"/>
      <point x="748" y="1036"/>
      <point x="748" y="1149" type="curve" smooth="yes"/>
      <point x="748" y="1240"/>
      <point x="681" y="1295"/>
      <point x="587" y="1295" type="curve" smooth="yes"/>
      <point x="449" y="1295"/>
      <point x="374" y="1143"/>
      <point x="374" y="1005" type="curve" smooth="yes"/>
      <point x="374" y="0" type="line"/>
      <point x="145" y="0" type="line"/>
      <point x="142" y="1035" type="line" smooth="yes"/>
      <point x="141" y="1300"/>
      <point x="307" y="1483"/>
      <point x="586" y="1483" type="curve" smooth="yes"/>
      <point x="842" y="1483"/>
      <point x="1008" y="1341"/>
      <point x="1008" y="1165" type="curve" smooth="yes"/>
      <point x="1008" y="1040"/>
      <point x="914" y="923"/>
      <point x="781" y="857" type="curve" smooth="yes"/>
      <point x="750" y="841"/>
      <point x="718" y="829"/>
      <point x="684" y="819" type="curve"/>
      <point x="719" y="811"/>
      <point x="755" y="800"/>
      <point x="790" y="788" type="curve" smooth="yes"/>
      <point x="983" y="717"/>
      <point x="1162" y="574"/>
      <point x="1162" y="352" type="curve" smooth="yes"/>
      <point x="1162" y="121"/>
      <point x="967" y="-23"/>
    </contour>
  </outline>
</glyph>
<glyph name="ae" format="1">
  <advance width="1779"/>
  <unicode hex="00E6"/>
  <outline>
    <contour>
      <point x="472" y="-23" type="curve" smooth="yes"/>
      <point x="626" y="-23"/>
      <point x="789" y="57"/>
      <point x="862" y="203" type="curve"/>
      <point x="937" y="60"/>
      <point x="1076" y="-23"/>
      <point x="1257" y="-23" type="curve" smooth="yes"/>
      <point x="1487" y="-23"/>
      <point x="1648" y="107"/>
      <point x="1648" y="107" type="curve"/>
      <point x="1583" y="279" type="line"/>
      <point x="1583" y="279"/>
      <point x="1436" y="168"/>
      <point x="1264" y="168" type="curve" smooth="yes"/>
      <point x="1094" y="168"/>
      <point x="993" y="254"/>
      <point x="977" y="450" type="curve"/>
      <point x="977" y="471" type="line"/>
      <point x="1661" y="471" type="line"/>
      <point x="1661" y="471"/>
      <point x="1666" y="498"/>
      <point x="1666" y="520" type="curve" smooth="yes"/>
      <point x="1666" y="815"/>
      <point x="1525" y="1052"/>
      <point x="1220" y="1052" type="curve" smooth="yes"/>
      <point x="1072" y="1052"/>
      <point x="964" y="985"/>
      <point x="885" y="881" type="curve"/>
      <point x="822" y="1000"/>
      <point x="670" y="1052"/>
      <point x="564" y="1052" type="curve" smooth="yes"/>
      <point x="334" y="1052"/>
      <point x="194" y="969"/>
      <point x="153" y="944" type="curve"/>
      <point x="221" y="786" type="line"/>
      <point x="341" y="843"/>
      <point x="438" y="867"/>
      <point x="515" y="867" type="curve" smooth="yes"/>
      <point x="666" y="867"/>
      <point x="746" y="769"/>
      <point x="747" y="634" type="curve"/>
      <point x="708" y="634" type="line" smooth="yes"/>
      <point x="291" y="634"/>
      <point x="74" y="567"/>
      <point x="74" y="292" type="curve" smooth="yes"/>
      <point x="74" y="89"/>
      <point x="234" y="-23"/>
    </contour>
    <contour>
      <point x="482" y="167" type="curve" smooth="yes"/>
      <point x="387" y="167"/>
      <point x="304" y="204"/>
      <point x="304" y="302" type="curve" smooth="yes"/>
      <point x="304" y="431"/>
      <point x="468" y="471"/>
      <point x="637" y="471" type="curve" smooth="yes"/>
      <point x="747" y="471" type="line"/>
      <point x="744" y="327"/>
      <point x="677" y="167"/>
    </contour>
    <contour>
      <point x="980" y="629" type="line"/>
      <point x="1010" y="764"/>
      <point x="1089" y="869"/>
      <point x="1232" y="869" type="curve" smooth="yes"/>
      <point x="1341" y="869"/>
      <point x="1441" y="788"/>
      <point x="1458" y="638" type="curve" smooth="yes"/>
      <point x="1459" y="629" type="line"/>
    </contour>
  </outline>
</glyph>
<glyph name="eth" format="1">
  <advance width="1218"/>
  <unicode hex="00F0"/>
  <outline>
    <contour>
      <point x="601" y="168" type="curve" smooth="yes"/>
      <point x="471" y="168"/>
      <point x="343" y="260"/>
      <point x="343" y="451" type="curve" smooth="yes"/>
      <point x="343" y="628"/>
      <point x="462" y="706"/>
      <point x="588" y="706" type="curve" smooth="yes"/>
      <point x="716" y="706"/>
      <point x="851" y="611"/>
      <point x="851" y="450" type="curve" smooth="yes"/>
      <point x="851" y="265"/>
      <point x="725" y="168"/>
    </contour>
    <contour>
      <point x="585" y="-24" type="curve" smooth="yes"/>
      <point x="909" y="-24"/>
      <point x="1102" y="170"/>
      <point x="1102" y="623" type="curve" smooth="yes"/>
      <point x="1102" y="1276"/>
      <point x="514" y="1438"/>
      <point x="365" y="1456" type="curve"/>
      <point x="287" y="1303" type="line"/>
      <point x="808" y="1184"/>
      <point x="847.864" y="901.924"/>
      <point x="872.902" y="808.721" type="curve" smooth="yes"/>
      <point x="879.395" y="784.549"/>
      <point x="883" y="763.827"/>
      <point x="883" y="749" type="curve"/>
      <point x="789" y="859"/>
      <point x="670" y="904"/>
      <point x="547" y="904" type="curve" smooth="yes"/>
      <point x="269" y="904"/>
      <point x="100" y="731"/>
      <point x="100" y="468" type="curve" smooth="yes"/>
      <point x="100" y="204"/>
      <point x="286" y="-24"/>
    </contour>
    <contour>
      <point x="357" y="1132" type="line"/>
      <point x="424" y="1005" type="line"/>
      <point x="1035" y="1330" type="line"/>
      <point x="968" y="1457" type="line"/>
    </contour>
  </outline>
</glyph>
<glyph name="oslash" format="1">
  <advance width="1268"/>
  <unicode hex="00F8"/>
  <outline>
    <contour>
      <point x="352" y="-209" type="line"/>
      <point x="253" y="-164" type="line"/>
      <point x="888" y="1204" type="line"/>
      <point x="987" y="1159" type="line"/>
    </contour>
    <component base="o"/>
  </outline>
</glyph>
<glyph name="Hbar" format="1">
  <advance width="1554"/>
  <unicode hex="0126"/>
  <outline>
    <contour>
      <point x="93" y="1057" type="line"/>
      <point x="93" y="1228" type="line"/>
      <point x="1461" y="1228" type="line"/>
      <point x="1461" y="1057" type="line"/>
    </contour>
    <component base="H"/>
  </outline>
</glyph>
<glyph name="hbar" format="1">
  <advance width="1185"/>
  <unicode hex="0127"/>
  <outline>
    <contour>
      <point x="-30" y="1177" type="line"/>
      <point x="-30" y="1328" type="line"/>
      <point x="587" y="1328" type="line"/>
      <point x="587" y="1177" type="line"/>
    </contour>
    <component base="h"/>
  </outline>
</glyph>
<glyph name="Lslash" format="1">
  <advance width="1159"/>
  <unicode hex="0141"/>
  <outline>
    <contour>
      <point x="639" y="874" type="line"/>
      <point x="39" y="431" type="line"/>
      <point x="39" y="643" type="line"/>
      <point x="639" y="1086" type="line"/>
    </contour>
    <component base="L"/>
  </outline>
</glyph>
<glyph name="Eng" format="1">
  <advance width="1612"/>
  <unicode hex="014A"/>
  <outline>
    <contour>
      <point x="581" y="-421" type="curve"/>
      <point x="613" y="-234" type="line"/>
      <point x="704.585" y="-259.883"/>
      <point x="800.508" y="-278.176"/>
      <point x="886.98" y="-278.176" type="curve" smooth="yes"/>
      <point x="1052.25" y="-278.176"/>
      <point x="1189" y="-241.357"/>
      <point x="1189" y="-33" type="curve" smooth="yes"/>
      <point x="1189" y="89.682" type="line"/>
      <point x="538" y="968" type="line"/>
      <point x="416" y="1148" type="line"/>
      <point x="416" y="0" type="line"/>
      <point x="192" y="0" type="line"/>
      <point x="192" y="1456" type="line"/>
      <point x="449" y="1456" type="line"/>
      <point x="1069" y="605" type="line"/>
      <point x="1189" y="428" type="line"/>
      <point x="1189" y="1456" type="line"/>
      <point x="1419" y="1456" type="line"/>
      <point x="1419" y="21" type="line" smooth="yes"/>
      <point x="1419" y="-324"/>
      <point x="1219.97" y="-463.82"/>
      <point x="894.893" y="-463.82" type="curve" smooth="yes"/>
      <point x="800.329" y="-463.82"/>
      <point x="695.1" y="-449.491"/>
    </contour>
  </outline>
</glyph>
<glyph name="OE" format="1">
  <advance width="2107"/>
  <unicode hex="0152"/>
  <outline>
    <contour>
      <point x="810" y="-24" type="curve" smooth="yes"/>
      <point x="432" y="-24"/>
      <point x="106" y="210"/>
      <point x="106" y="731" type="curve" smooth="yes"/>
      <point x="106" y="1194"/>
      <point x="390" y="1482"/>
      <point x="747" y="1482" type="curve" smooth="yes"/>
      <point x="989" y="1482"/>
      <point x="1091" y="1401"/>
      <point x="1091" y="1402" type="curve"/>
      <point x="1091" y="1456" type="line"/>
      <point x="1922" y="1456" type="line"/>
      <point x="1922" y="1249" type="line"/>
      <point x="1333" y="1249" type="line"/>
      <point x="1333" y="849" type="line"/>
      <point x="1885" y="849" type="line"/>
      <point x="1885" y="641" type="line"/>
      <point x="1335" y="641" type="line"/>
      <point x="1335" y="207" type="line"/>
      <point x="1951" y="207" type="line"/>
      <point x="1951" y="0" type="line"/>
      <point x="1091" y="0" type="line"/>
      <point x="1091" y="54" type="line"/>
      <point x="1095" y="54"/>
      <point x="987" y="-24"/>
    </contour>
    <contour>
      <point x="820" y="167" type="curve" smooth="yes"/>
      <point x="1021" y="167"/>
      <point x="1090" y="238"/>
      <point x="1091" y="238" type="curve"/>
      <point x="1091" y="1201" type="line"/>
      <point x="982" y="1253"/>
      <point x="879" y="1275"/>
      <point x="776" y="1275" type="curve" smooth="yes"/>
      <point x="557" y="1275"/>
      <point x="367" y="1099"/>
      <point x="367" y="725" type="curve" smooth="yes"/>
      <point x="367" y="366"/>
      <point x="545" y="167"/>
    </contour>
  </outline>
</glyph>
<glyph name="Tbar" format="1">
  <advance width="1174"/>
  <unicode hex="0166"/>
  <outline>
    <contour>
      <point x="268" y="631" type="line"/>
      <point x="268" y="802" type="line"/>
      <point x="886" y="802" type="line"/>
      <point x="886" y="631" type="line"/>
    </contour>
    <component base="T"/>
  </outline>
</glyph>
<glyph name="tbar" format="1">
  <advance width="795"/>
  <unicode hex="0167"/>
  <outline>
    <contour>
      <point x="64" y="514" type="line"/>
      <point x="64" y="685" type="line"/>
      <point x="681" y="685" type="line"/>
      <point x="681" y="514" type="line"/>
    </contour>
    <component base="t"/>
  </outline>
</glyph>
<glyph name="florin" format="1">
  <advance width="1135"/>
  <unicode hex="0192"/>
  <outline>
    <contour>
      <point x="256" y="-312" type="curve" smooth="yes"/>
      <point x="250" y="-312"/>
      <point x="197" y="-309"/>
      <point x="146" y="-294" type="curve"/>
      <point x="146" y="-107" type="line"/>
      <point x="146" y="-107"/>
      <point x="194" y="-117"/>
      <point x="237" y="-117" type="curve" smooth="yes"/>
      <point x="294" y="-117"/>
      <point x="355" y="-77"/>
      <point x="372" y="79" type="curve" smooth="yes"/>
      <point x="437" y="674" type="line"/>
      <point x="304" y="674" type="line"/>
      <point x="328" y="829" type="line"/>
      <point x="459" y="829" type="line"/>
      <point x="495" y="1118" type="line" smooth="yes"/>
      <point x="508" y="1262"/>
      <point x="549" y="1463"/>
      <point x="814" y="1463" type="curve" smooth="yes"/>
      <point x="936" y="1463"/>
      <point x="1001" y="1420"/>
      <point x="1001" y="1420" type="curve"/>
      <point x="1001" y="1239" type="line"/>
      <point x="1001" y="1239"/>
      <point x="928" y="1260"/>
      <point x="858" y="1260" type="curve" smooth="yes"/>
      <point x="798" y="1260"/>
      <point x="760" y="1215"/>
      <point x="749" y="1114" type="curve" smooth="yes"/>
      <point x="711" y="829" type="line"/>
      <point x="876" y="829" type="line"/>
      <point x="857" y="674" type="line"/>
      <point x="684" y="674" type="line"/>
      <point x="614" y="55" type="line" smooth="yes"/>
      <point x="583" y="-218"/>
      <point x="472" y="-312"/>
    </contour>
  </outline>
</glyph>
<glyph name="circumflex" format="1">
  <advance width="699"/>
  <unicode hex="02C6"/>
  <outline>
    <contour>
      <point x="-23" y="1116" type="line"/>
      <point x="230" y="1485" type="line"/>
      <point x="464" y="1485" type="line"/>
      <point x="723" y="1116" type="line"/>
      <point x="503" y="1116" type="line"/>
      <point x="346" y="1292" type="line"/>
      <point x="187" y="1116" type="line"/>
    </contour>
  </outline>
</glyph>
<glyph name="caron" format="1">
  <advance width="699"/>
  <unicode hex="02C7"/>
  <outline>
    <contour>
      <point x="253.5" y="1116" type="line"/>
      <point x="447.5" y="1116" type="line"/>
      <point x="719.5" y="1484" type="line"/>
      <point x="475.5" y="1484" type="line"/>
      <point x="344.5" y="1314" type="line"/>
      <point x="213.5" y="1484" type="line"/>
      <point x="-20.5" y="1484" type="line"/>
    </contour>
  </outline>
</glyph>
<glyph name="breve" format="1">
  <advance width="684"/>
  <unicode hex="02D8"/>
  <outline>
    <contour>
      <point x="344" y="1167" type="curve" smooth="yes"/>
      <point x="158" y="1167"/>
      <point x="44" y="1251"/>
      <point x="30" y="1456" type="curve"/>
      <point x="196" y="1456" type="line"/>
      <point x="204" y="1351"/>
      <point x="272" y="1333"/>
      <point x="344" y="1333" type="curve" smooth="yes"/>
      <point x="416" y="1333"/>
      <point x="480" y="1351"/>
      <point x="490" y="1456" type="curve"/>
      <point x="654" y="1456" type="line"/>
      <point x="640" y="1251"/>
      <point x="530" y="1167"/>
    </contour>
  </outline>
</glyph>
<glyph name="ring" format="1">
  <advance width="605"/>
  <unicode hex="02DA"/>
  <outline>
    <contour>
      <point x="304" y="1206" type="curve" smooth="yes"/>
      <point x="368" y="1206"/>
      <point x="399" y="1255"/>
      <point x="399" y="1306" type="curve" smooth="yes"/>
      <point x="399" y="1358"/>
      <point x="366" y="1412"/>
      <point x="302" y="1412" type="curve" smooth="yes"/>
      <point x="238" y="1412"/>
      <point x="206" y="1361"/>
      <point x="206" y="1309" type="curve" smooth="yes"/>
      <point x="206" y="1258"/>
      <point x="238" y="1206"/>
    </contour>
    <contour>
      <point x="304" y="1099" type="curve" smooth="yes"/>
      <point x="146" y="1099"/>
      <point x="72" y="1202"/>
      <point x="72" y="1306" type="curve" smooth="yes"/>
      <point x="72" y="1411"/>
      <point x="150" y="1519"/>
      <point x="304" y="1519" type="curve" smooth="yes"/>
      <point x="456" y="1519"/>
      <point x="534" y="1411"/>
      <point x="534" y="1306" type="curve" smooth="yes"/>
      <point x="534" y="1202"/>
      <point x="458" y="1099"/>
    </contour>
  </outline>
</glyph>
<glyph name="ogonek" format="1">
  <advance width="508"/>
  <unicode hex="02DB"/>
  <outline>
    <contour>
      <point x="243.5" y="-374" type="curve" smooth="yes"/>
      <point x="315.5" y="-374"/>
      <point x="399.5" y="-360"/>
      <point x="482.5" y="-335" type="curve"/>
      <point x="482.5" y="-196" type="line"/>
      <point x="454.5" y="-204"/>
      <point x="376.5" y="-230"/>
      <point x="316.5" y="-230" type="curve" smooth="yes"/>
      <point x="273.5" y="-230"/>
      <point x="239.5" y="-217"/>
      <point x="239.5" y="-175" type="curve" smooth="yes"/>
      <point x="239.5" y="-120"/>
      <point x="300.5" y="-35"/>
      <point x="394.5" y="20" type="curve"/>
      <point x="265.5" y="20" type="line"/>
      <point x="186.5" y="-20"/>
      <point x="25.5" y="-94"/>
      <point x="25.5" y="-235" type="curve" smooth="yes"/>
      <point x="25.5" y="-332"/>
      <point x="117.5" y="-374"/>
    </contour>
  </outline>
</glyph>
<glyph name="breveinvertedcomb" format="1">
  <advance width="629"/>
  <unicode hex="0311"/>
  <outline>
    <contour>
      <point x="2.5" y="1162" type="curve"/>
      <point x="167.5" y="1162" type="line"/>
      <point x="176.5" y="1257"/>
      <point x="252.5" y="1281"/>
      <point x="314.5" y="1281" type="curve" smooth="yes"/>
      <point x="376.5" y="1281"/>
      <point x="452.5" y="1257"/>
      <point x="461.5" y="1162" type="curve"/>
      <point x="626.5" y="1162" type="line"/>
      <point x="612.5" y="1357"/>
      <point x="500.5" y="1447"/>
      <point x="314.5" y="1447" type="curve" smooth="yes"/>
      <point x="128.5" y="1447"/>
      <point x="16.5" y="1357"/>
    </contour>
  </outline>
</glyph>
<glyph name="commaaccent" format="1">
  <advance width="540"/>
  <unicode hex="0326"/>
  <outline>
    <contour>
      <point x="81" y="-639" type="line"/>
      <point x="281" y="-639" type="line"/>
      <point x="459" y="-140" type="line"/>
      <point x="193" y="-140" type="line"/>
    </contour>
  </outline>
</glyph>
<glyph name="Omega" format="1">
  <advance width="1603"/>
  <unicode hex="03A9"/>
  <outline>
    <contour>
      <point x="81" y="0" type="line"/>
      <point x="36" y="196" type="line"/>
      <point x="333" y="194" type="line"/>
      <point x="181" y="336"/>
      <point x="86" y="570"/>
      <point x="86" y="811" type="curve" smooth="yes"/>
      <point x="86" y="1219"/>
      <point x="384" y="1480"/>
      <point x="785" y="1480" type="curve" smooth="yes"/>
      <point x="1201" y="1480"/>
      <point x="1464" y="1187"/>
      <point x="1464" y="801" type="curve" smooth="yes"/>
      <point x="1464" y="555"/>
      <point x="1353" y="326"/>
      <point x="1210" y="194" type="curve"/>
      <point x="1292" y="194"/>
      <point x="1381" y="196"/>
      <point x="1459" y="196" type="curve"/>
      <point x="1438" y="0" type="line"/>
      <point x="883" y="0" type="line"/>
      <point x="877" y="163" type="line"/>
      <point x="1069" y="295"/>
      <point x="1211" y="546"/>
      <point x="1211" y="789" type="curve" smooth="yes"/>
      <point x="1211" y="1053"/>
      <point x="1067" y="1282"/>
      <point x="783" y="1282" type="curve" smooth="yes"/>
      <point x="522" y="1282"/>
      <point x="340" y="1080"/>
      <point x="340" y="792" type="curve" smooth="yes"/>
      <point x="340" y="549"/>
      <point x="474" y="290"/>
      <point x="668" y="163" type="curve"/>
      <point x="673" y="0" type="line"/>
    </contour>
  </outline>
</glyph>
<glyph name="mu" format="1">
  <advance width="1191"/>
  <unicode hex="03BC"/>
  <outline>
    <contour>
      <point x="132" y="-227" type="line"/>
      <point x="372" y="-227" type="line"/>
      <point x="372" y="-227"/>
      <point x="372" y="24"/>
      <point x="372" y="24" type="curve"/>
      <point x="406" y="-5"/>
      <point x="471" y="-23"/>
      <point x="531" y="-23" type="curve" smooth="yes"/>
      <point x="636" y="-23"/>
      <point x="757" y="28"/>
      <point x="806" y="152" type="curve"/>
      <point x="810" y="0" type="line"/>
      <point x="1055" y="0" type="line"/>
      <point x="1045" y="92"/>
      <point x="1041" y="166"/>
      <point x="1041" y="262" type="curve" smooth="yes"/>
      <point x="1041" y="1026" type="line"/>
      <point x="803" y="1026" type="line"/>
      <point x="803" y="422" type="line" smooth="yes"/>
      <point x="803" y="227"/>
      <point x="716" y="167"/>
      <point x="564" y="167" type="curve" smooth="yes"/>
      <point x="420" y="167"/>
      <point x="367" y="267"/>
      <point x="367" y="444" type="curve"/>
      <point x="363" y="1026" type="line"/>
      <point x="132" y="1026" type="line"/>
    </contour>
  </outline>
</glyph>
<glyph name="quotedblbase" format="1">
  <advance width="1024"/>
  <unicode hex="201E"/>
  <outline>
    <contour>
      <point x="100" y="-223" type="line"/>
      <point x="210" y="253" type="line"/>
      <point x="470" y="253" type="line"/>
      <point x="309" y="-223" type="line"/>
    </contour>
    <contour>
      <point x="494" y="-223" type="line"/>
      <point x="605" y="253" type="line"/>
      <point x="865" y="253" type="line"/>
      <point x="698" y="-223" type="line"/>
    </contour>
  </outline>
</glyph>
<glyph name="daggerdbl" format="1">
  <advance width="1022"/>
  <unicode hex="2021"/>
  <outline>
    <contour>
      <point x="364" y="106" type="line"/>
      <point x="607" y="106" type="line"/>
      <point x="576" y="408" type="line"/>
      <point x="908" y="408" type="line"/>
      <point x="908" y="591" type="line"/>
      <point x="576" y="591" type="line"/>
      <point x="576" y="920" type="line"/>
      <point x="917" y="920" type="line"/>
      <point x="917" y="1110" type="line"/>
      <point x="576" y="1110" type="line"/>
      <point x="607" y="1424" type="line"/>
      <point x="364" y="1424" type="line"/>
      <point x="408" y="1110" type="line"/>
      <point x="70" y="1110" type="line"/>
      <point x="70" y="920" type="line"/>
      <point x="408" y="920" type="line"/>
      <point x="408" y="591" type="line"/>
      <point x="66" y="591" type="line"/>
      <point x="66" y="408" type="line"/>
      <point x="408" y="408" type="line"/>
    </contour>
  </outline>
</glyph>
<glyph name="guilsinglleft" format="1">
  <advance width="642"/>
  <unicode hex="2039"/>
  <outline>
    <contour>
      <point x="344" y="160" type="line"/>
      <point x="68" y="541" type="line"/>
      <point x="350" y="921" type="line"/>
      <point x="543" y="921" type="line"/>
      <point x="323" y="540" type="line"/>
      <point x="535" y="160" type="line"/>
    </contour>
  </outline>
</glyph>
<glyph name="foursuperior" format="1">
  <advance width="897"/>
  <unicode hex="2074"/>
  <outline>
    <contour>
      <point x="306" y="969" type="line"/>
      <point x="498" y="969" type="line"/>
      <point x="498" y="1241" type="line"/>
    </contour>
    <contour>
      <point x="500" y="646" type="line"/>
      <point x="500" y="839" type="line"/>
      <point x="130" y="839" type="line"/>
      <point x="130" y="949" type="line"/>
      <point x="498" y="1456" type="line"/>
      <point x="672" y="1456" type="line"/>
      <point x="672" y="969" type="line"/>
      <point x="788" y="969" type="line"/>
      <point x="788" y="839" type="line"/>
      <point x="672" y="839" type="line"/>
      <point x="672" y="646" type="line"/>
    </contour>
  </outline>
</glyph>
<glyph name="Euro" format="1">
  <advance width="1190"/>
  <unicode hex="20AC"/>
  <outline>
    <contour>
      <point x="722.0" y="-21.0" type="curve" smooth="yes"/>
      <point x="849.0" y="-21.0"/>
      <point x="967.0" y="13.0"/>
      <point x="1075.0" y="86.0" type="curve"/>
      <point x="1075.0" y="261.0" type="line"/>
      <point x="929.0" y="205.0"/>
      <point x="817.0" y="182.0"/>
      <point x="736.0" y="182.0" type="curve" smooth="yes"/>
      <point x="558.0" y="182.0"/>
      <point x="461.0" y="304.0"/>
      <point x="430.0" y="483.0" type="curve"/>
      <point x="932.0" y="483.0" type="line"/>
      <point x="956.0" y="636.0" type="line"/>
      <point x="414.0" y="636.0" type="line"/>
      <point x="408.0" y="658.0"/>
      <point x="405.0" y="683.0"/>
      <point x="405.0" y="709.0" type="curve" smooth="yes"/>
      <point x="405.0" y="736.0"/>
      <point x="408.0" y="763.0"/>
      <point x="411.0" y="786.0" type="curve"/>
      <point x="961.0" y="786.0" type="line"/>
      <point x="988.0" y="929.0" type="line"/>
      <point x="438.0" y="929.0" type="line"/>
      <point x="487.0" y="1098.0"/>
      <point x="579.0" y="1222.0"/>
      <point x="747.0" y="1222.0" type="curve" smooth="yes"/>
      <point x="842.0" y="1222.0"/>
      <point x="956.0" y="1186.0"/>
      <point x="1053.0" y="1120.0" type="curve"/>
      <point x="1099.0" y="1285.0" type="line"/>
      <point x="1007.0" y="1378.0"/>
      <point x="888.0" y="1421.0"/>
      <point x="749.0" y="1421.0" type="curve" smooth="yes"/>
      <point x="439.0" y="1421.0"/>
      <point x="247.0" y="1218.0"/>
      <point x="185.0" y="929.0" type="curve"/>
      <point x="69.0" y="929.0" type="line"/>
      <point x="39.0" y="786.0" type="line"/>
      <point x="161.0" y="786.0" type="line"/>
      <point x="156.0" y="756.0"/>
      <point x="153.0" y="727.0"/>
      <point x="153.0" y="700.0" type="curve" smooth="yes"/>
      <point x="153.0" y="677.0"/>
      <point x="156.0" y="655.0"/>
      <point x="161.0" y="636.0" type="curve"/>
      <point x="70.0" y="636.0" type="line"/>
      <point x="44.0" y="483.0" type="line"/>
      <point x="179.0" y="483.0" type="line"/>
      <point x="228.0" y="183.0"/>
      <point x="394.0" y="-21.0"/>
    </contour>
  </outline>
</glyph>
<glyph name="partialdiff" format="1">
  <advance width="1167"/>
  <unicode hex="2202"/>
  <outline>
    <contour>
      <point x="481" y="-24" type="curve" smooth="yes"/>
      <point x="877" y="-24"/>
      <point x="1065" y="407"/>
      <point x="1065" y="828" type="curve" smooth="yes"/>
      <point x="1065" y="1294"/>
      <point x="875" y="1501"/>
      <point x="565" y="1501" type="curve" smooth="yes"/>
      <point x="447" y="1501"/>
      <point x="324" y="1461"/>
      <point x="237" y="1398" type="curve"/>
      <point x="251" y="1186" type="line"/>
      <point x="353" y="1254"/>
      <point x="469" y="1312"/>
      <point x="549" y="1312" type="curve" smooth="yes"/>
      <point x="705.383251975" y="1312.0"/>
      <point x="809.403995293" y="1176.85723554"/>
      <point x="819.236087365" y="962.765831296" type="curve" smooth="yes"/>
      <point x="819.743446719" y="951.718205257"/>
      <point x="820.0" y="940.460354334"/>
      <point x="820" y="929" type="curve"/>
      <point x="717.522" y="1000.45"/>
      <point x="641.666" y="1002"/>
      <point x="575.016" y="1002" type="curve" smooth="yes"/>
      <point x="289.016" y="1002"/>
      <point x="53" y="749"/>
      <point x="53" y="427" type="curve" smooth="yes"/>
      <point x="53" y="172"/>
      <point x="199" y="-24"/>
    </contour>
    <contour>
      <point x="481" y="169" type="curve" smooth="yes"/>
      <point x="365" y="169"/>
      <point x="294" y="270"/>
      <point x="294" y="423" type="curve" smooth="yes"/>
      <point x="294" y="633"/>
      <point x="422" y="815"/>
      <point x="589" y="815" type="curve" smooth="yes"/>
      <point x="686" y="815"/>
      <point x="769" y="731"/>
      <point x="806" y="646" type="curve"/>
      <point x="762" y="406"/>
      <point x="639" y="169"/>
    </contour>
  </outline>
</glyph>
<glyph name="product" format="1">
  <advance width="1568"/>
  <unicode hex="220F"/>
  <outline>
    <contour>
      <point x="217" y="-100" type="line"/>
      <point x="217" y="1263" type="line"/>
      <point x="59" y="1263" type="line"/>
      <point x="59" y="1456" type="line"/>
      <point x="1446" y="1456" type="line"/>
      <point x="1448" y="1263" type="line"/>
      <point x="1319" y="1263" type="line"/>
      <point x="1319" y="-100" type="line"/>
      <point x="1053" y="-100" type="line"/>
      <point x="1053" y="1263" type="line"/>
      <point x="476" y="1263" type="line"/>
      <point x="476" y="-100" type="line"/>
    </contour>
  </outline>
</glyph>
<glyph name="minus" format="1">
  <advance width="1458"/>
  <unicode hex="2212"/>
  <outline>
    <contour>
      <point x="196.5" y="315" type="line"/>
      <point x="1261.5" y="315" type="line"/>
      <point x="1261.5" y="507" type="line"/>
      <point x="196.5" y="507" type="line"/>
    </contour>
  </outline>
</glyph>
<glyph name="integral" format="1">
  <advance width="702"/>
  <unicode hex="222B"/>
  <outline>
    <contour>
      <point x="151" y="-411" type="curve" smooth="yes"/>
      <point x="99" y="-411"/>
      <point x="49" y="-400"/>
      <point x="-16" y="-385" type="curve"/>
      <point x="-16" y="-194" type="line"/>
      <point x="38" y="-217"/>
      <point x="94" y="-222"/>
      <point x="123" y="-222" type="curve" smooth="yes"/>
      <point x="215" y="-222"/>
      <point x="231" y="-161"/>
      <point x="231" y="-49" type="curve" smooth="yes"/>
      <point x="230" y="1316" type="line" smooth="yes"/>
      <point x="230" y="1536"/>
      <point x="321" y="1699"/>
      <point x="550" y="1699" type="curve" smooth="yes"/>
      <point x="592" y="1699"/>
      <point x="719" y="1674"/>
      <point x="719" y="1674" type="curve"/>
      <point x="719" y="1478" type="line"/>
      <point x="660" y="1505"/>
      <point x="607" y="1509"/>
      <point x="580" y="1509" type="curve" smooth="yes"/>
      <point x="484" y="1509"/>
      <point x="468" y="1449"/>
      <point x="468" y="1337" type="curve" smooth="yes"/>
      <point x="469" y="-29" type="line" smooth="yes"/>
      <point x="469" y="-249"/>
      <point x="382" y="-411"/>
    </contour>
  </outline>
</glyph>
<glyph name="lessequal" format="1">
  <advance width="1351"/>
  <unicode hex="2264"/>
  <outline>
    <contour>
      <point x="1146" y="255" type="line"/>
      <point x="166" y="639" type="line"/>
      <point x="166" y="747" type="line"/>
      <point x="1146" y="1168" type="line"/>
      <point x="1146" y="967" type="line"/>
      <point x="428" y="697" type="line"/>
      <point x="1146" y="464" type="line"/>
    </contour>
    <contour>
      <point x="166" y="0" type="line"/>
      <point x="166" y="176" type="line"/>
      <point x="1146" y="176" type="line"/>
      <point x="1146" y="0" type="line"/>
    </contour>
  </outline>
</glyph>
<glyph name="fi" format="1">
  <advance width="1198"/>
  <unicode hex="FB01"/>
  <outline>
    <contour>
      <point x="821" y="1274" type="line"/>
      <point x="1043" y="1274" type="line"/>
      <point x="1043" y="1483" type="line"/>
      <point x="821" y="1483" type="line"/>
    </contour>
    <contour>
      <point x="261" y="0" type="line"/>
      <point x="496" y="0" type="line"/>
      <point x="496" y="868" type="line"/>
      <point x="808" y="868" type="line"/>
      <point x="808" y="0" type="line"/>
      <point x="1043" y="0" type="line"/>
      <point x="1043" y="1026" type="line"/>
      <point x="496" y="1026" type="line"/>
      <point x="496.0" y="1035.64152867"/>
      <point x="496.043976639" y="1044.94506545"/>
      <point x="496.137675321" y="1053.92245748" type="curve" smooth="yes"/>
      <point x="498.687337723" y="1298.20891135"/>
      <point x="538.053912517" y="1301.0"/>
      <point x="730" y="1301" type="curve" smooth="yes"/>
      <point x="738" y="1301" type="line"/>
      <point x="738" y="1484" type="line"/>
      <point x="686" y="1484" type="line" smooth="yes"/>
      <point x="336" y="1484"/>
      <point x="261" y="1359"/>
      <point x="261" y="1073" type="curve" smooth="yes"/>
      <point x="261" y="1026" type="line"/>
      <point x="72" y="1026" type="line"/>
      <point x="72" y="868" type="line"/>
      <point x="261" y="868" type="line"/>
    </contour>
  </outline>
</glyph>
<glyph name="uni2206" format="1">
  <advance width="1309"/>
  <outline>
    <contour>
      <point x="361.0" y="216.0" type="line"/>
      <point x="456.0" y="486.0"/>
      <point x="550.0" y="745.0"/>
      <point x="645.0" y="1016.0" type="curve"/>
      <point x="747.0" y="740.0"/>
      <point x="840.0" y="490.0"/>
      <point x="942.0" y="216.0" type="curve"/>
    </contour>
    <contour>
      <point x="39.0" y="0.0" type="line"/>
      <point x="1270.0" y="0.0" type="line"/>
      <point x="1270.0" y="103.0" type="line"/>
      <point x="767.0" y="1402.0" type="line"/>
      <point x="543.0" y="1402.0" type="line"/>
      <point x="39.0" y="103.0" type="line"/>
    </contour>
  </outline>
</glyph>
